<svg xmlns="http://www.w3.org/2000/svg" width="84" height="99" viewBox="0 0 84 99" fill="none">
  <path d="M44.0501 0.885223C35.6501 3.13353 35.6501 23.8179 35.9501 32.6612C35.9501 33.7104 36.5501 34.6098 37.4501 35.0594C38.2001 35.5091 38.9501 35.5091 39.7001 35.3592C39.8501 35.3592 40.1501 35.2093 40.3001 35.0594C48.1001 31.0125 66.1001 20.5204 63.8501 12.1267C61.4501 3.73308 52.6001 -1.36308 44.0501 0.885223ZM44.6501 14.0753C47.8001 13.1759 51.1001 15.1245 52.0001 18.1222C51.7001 19.4712 47.8001 22.7687 42.8501 25.9163C43.0001 19.9209 43.7501 14.9746 44.6501 14.0753Z" fill="url(#paint0_linear_1_799)"/>
  <path d="M41.5001 31.1622C37.4501 23.3681 26.9501 5.38164 18.5501 7.62994C10.0001 9.87825 4.90009 18.7216 7.15009 27.2651C9.40009 35.6588 30.1001 35.6588 38.9501 35.359C39.1001 35.359 39.4001 35.359 39.5501 35.2091C40.3001 35.0592 40.9001 34.4597 41.3501 33.8601C41.9501 33.1107 41.9501 32.0615 41.5001 31.1622ZM20.5001 26.8155C19.6001 23.6678 21.5501 20.3703 24.5501 19.471C25.9001 19.7708 29.2001 23.6678 32.3501 28.6141C26.3501 28.4642 21.2501 27.7148 20.5001 26.8155Z" fill="url(#paint1_linear_1_799)"/>
  <path d="M73.9 23.2183L4 41.9541L24.4 96.513C25 97.8619 26.5 98.7613 27.85 98.3116L81.4 83.9225C82.9 83.4728 83.8 82.1238 83.5 80.6249L73.9 23.2183Z" fill="url(#paint2_linear_1_799)"/>
  <path d="M0.700055 46.001L5.95005 60.6899L81.55 40.4552L78.7001 25.1667C78.4001 23.5179 76.7501 22.4687 75.1001 22.9184L2.80005 42.2538C1.15005 42.7035 0.250055 44.3522 0.700055 46.001Z" fill="url(#paint3_linear_1_799)"/>
  <path d="M77.5 44.3523L77.05 41.6543L10.45 59.4908L11.5 62.0389L77.5 44.3523Z" fill="url(#paint4_linear_1_799)"/>
  <path d="M30.4 34.7597C29.2 30.1132 31.9 25.3168 36.55 23.9678C41.2 22.7688 46 25.4667 47.35 30.1132L30.4 34.7597Z" fill="url(#paint5_linear_1_799)"/>
  <path d="M47.3501 30.2632L30.4001 34.7598L46.1501 93.3656L63.1001 88.869L47.3501 30.2632Z" fill="url(#paint6_linear_1_799)"/>
  <defs>
    <linearGradient id="paint0_linear_1_799" x1="35.3748" y1="12.1385" x2="58.3646" y2="25.4222" gradientUnits="userSpaceOnUse">
      <stop stop-color="#C1D5F4"/>
      <stop offset="1" stop-color="#3F81D9"/>
    </linearGradient>
    <linearGradient id="paint1_linear_1_799" x1="8.86218" y1="15.1818" x2="41.4484" y2="34.0107" gradientUnits="userSpaceOnUse">
      <stop stop-color="#C1D5F4"/>
      <stop offset="1" stop-color="#3F81D9"/>
    </linearGradient>
    <linearGradient id="paint2_linear_1_799" x1="7.29752" y1="36.0729" x2="84.3455" y2="80.5913" gradientUnits="userSpaceOnUse">
      <stop stop-color="#FADBAC"/>
      <stop offset="0.1738" stop-color="#FAD9A8"/>
      <stop offset="0.354" stop-color="#F9D49B"/>
      <stop offset="0.537" stop-color="#F8CC87"/>
      <stop offset="0.7221" stop-color="#F6C16A"/>
      <stop offset="0.907" stop-color="#F4B245"/>
      <stop offset="1" stop-color="#F3AA2F"/>
    </linearGradient>
    <linearGradient id="paint3_linear_1_799" x1="11.8771" y1="24.7142" x2="70.8908" y2="58.8124" gradientUnits="userSpaceOnUse">
      <stop stop-color="#FADBAC"/>
      <stop offset="0.1814" stop-color="#FAD9A8"/>
      <stop offset="0.3695" stop-color="#F9D49B"/>
      <stop offset="0.5605" stop-color="#F8CC87"/>
      <stop offset="0.7537" stop-color="#F7C16A"/>
      <stop offset="0.9467" stop-color="#F5B345"/>
      <stop offset="1" stop-color="#F4AE39"/>
    </linearGradient>
    <linearGradient id="paint4_linear_1_799" x1="10.8529" y1="60.7343" x2="77.3409" y2="42.9063" gradientUnits="userSpaceOnUse">
      <stop stop-color="#F7C374"/>
      <stop offset="1" stop-color="#F3A31F"/>
    </linearGradient>
    <linearGradient id="paint5_linear_1_799" x1="29.3036" y1="30.5564" x2="46.2639" y2="26.0087" gradientUnits="userSpaceOnUse">
      <stop stop-color="#C1D5F4"/>
      <stop offset="1" stop-color="#3F81D9"/>
    </linearGradient>
    <linearGradient id="paint6_linear_1_799" x1="22.8097" y1="48.0002" x2="70.7339" y2="75.6909" gradientUnits="userSpaceOnUse">
      <stop stop-color="#C1D5F4"/>
      <stop offset="1" stop-color="#2E76D6"/>
    </linearGradient>
  </defs>
</svg>