<svg xmlns="http://www.w3.org/2000/svg" width="82" height="24" viewBox="0 0 82 24" fill="none">
  <path d="M81.05 12.9519L78.8 0.811035H54.5L41 4.40832C41 4.25844 41.15 3.95866 41 3.80877C40.55 2.90945 39.95 1.86024 39.35 0.811035H31.4C31.55 0.960922 31.55 1.11081 31.7 1.2607C29.6 1.2607 27.65 1.11081 26 0.811035H7.39998C9.79998 5.75731 19.1 7.55595 27.8 8.00561L13.4 11.9027L2.29999 14.9004C0.649985 15.3501 -0.250017 17.1487 0.349984 18.6476L1.99998 23.2941H78.05L76.55 14.151L81.05 12.9519Z" fill="url(#paint0_linear_1_797)"/>
  <defs>
    <linearGradient id="paint0_linear_1_797" x1="21.1866" y1="-10.8813" x2="61.4307" y2="37.1157" gradientUnits="userSpaceOnUse">
      <stop stop-color="#6F9EE6"/>
      <stop offset="1" stop-color="#337AD7"/>
    </linearGradient>
  </defs>
</svg>