<svg xmlns="http://www.w3.org/2000/svg" width="42" height="50" viewBox="0 0 42 50" fill="none">
  <path d="M21.9001 0.384687C17.7001 1.43389 17.7001 11.926 17.8501 16.2727C17.8501 16.7224 18.1501 17.172 18.6001 17.4718C18.9001 17.6217 19.3501 17.7716 19.6501 17.6217C19.8001 17.6217 19.8001 17.6217 19.9501 17.4718C23.8501 15.3734 32.8501 10.2772 31.6501 6.08039C30.6001 1.73367 26.1001 -0.814408 21.9001 0.384687ZM22.2001 6.97971C23.8501 6.53005 25.5001 7.42937 25.8001 8.92824C25.6501 9.67767 23.7001 11.3264 21.1501 12.8253C21.3001 9.82756 21.7501 7.27948 22.2001 6.97971Z" fill="url(#paint0_linear_1_840)"/>
  <path d="M21.9001 0.384687C17.7001 1.43389 17.7001 11.926 17.8501 16.2727C17.8501 16.7224 18.1501 17.172 18.6001 17.4718C18.9001 17.6217 19.3501 17.7716 19.6501 17.6217C19.8001 17.6217 19.8001 17.6217 19.9501 17.4718C23.8501 15.3734 32.8501 10.2772 31.6501 6.08039C30.6001 1.73367 26.1001 -0.814408 21.9001 0.384687ZM22.2001 6.97971C23.8501 6.53005 25.5001 7.42937 25.8001 8.92824C25.6501 9.67767 23.7001 11.3264 21.1501 12.8253C21.3001 9.82756 21.7501 7.27948 22.2001 6.97971Z" fill="url(#paint1_linear_1_840)"/>
  <path d="M20.55 15.5235C18.45 11.6264 13.35 2.63319 9.14999 3.83229C4.79999 5.03138 2.24999 9.3781 3.44999 13.7248C4.49999 17.9216 15 17.9216 19.35 17.7718C19.5 17.7718 19.5 17.7718 19.65 17.7718C19.95 17.6219 20.4 17.472 20.55 17.0223C20.85 16.4228 20.85 15.9731 20.55 15.5235ZM10.05 13.2752C9.59999 11.6264 10.5 9.97764 12 9.67787C12.75 9.82776 14.4 11.7763 15.9 14.3244C13.05 14.1745 10.5 13.7248 10.05 13.2752Z" fill="url(#paint2_linear_1_840)"/>
  <path d="M20.55 15.5235C18.45 11.6264 13.35 2.63319 9.14999 3.83229C4.79999 5.03138 2.24999 9.3781 3.44999 13.7248C4.49999 17.9216 15 17.9216 19.35 17.7718C19.5 17.7718 19.5 17.7718 19.65 17.7718C19.95 17.6219 20.4 17.472 20.55 17.0223C20.85 16.4228 20.85 15.9731 20.55 15.5235ZM10.05 13.2752C9.59999 11.6264 10.5 9.97764 12 9.67787C12.75 9.82776 14.4 11.7763 15.9 14.3244C13.05 14.1745 10.5 13.7248 10.05 13.2752Z" fill="url(#paint3_linear_1_840)"/>
  <path d="M23.5501 15.0737L15.0001 17.322L22.9501 46.55L31.3501 44.3017L23.5501 15.0737Z" fill="url(#paint4_linear_1_840)"/>
  <path d="M23.5501 15.0737L15.0001 17.322L22.9501 46.55L31.3501 44.3017L23.5501 15.0737Z" fill="url(#paint5_linear_1_840)"/>
  <path d="M36.75 11.4761L1.79999 20.7691L12 48.1984C12.3 48.9478 13.05 49.2476 13.8 49.0977L40.5 41.9031C41.25 41.7532 41.7 41.0038 41.55 40.2544L36.75 11.4761Z" fill="url(#paint6_linear_1_840)"/>
  <path d="M0.150022 22.8675L2.70002 30.212L40.5 20.1696L39.15 12.5254C39 11.626 38.1 11.1764 37.35 11.3263L1.20002 21.0689C0.30002 21.2188 -0.149978 22.1181 0.150022 22.8675Z" fill="url(#paint7_linear_1_840)"/>
  <path d="M38.5501 21.9686L38.2501 20.7695L5.10008 29.6129L5.55008 30.812L38.5501 21.9686Z" fill="url(#paint8_linear_1_840)"/>
  <path d="M15.0001 17.3219C14.4001 14.9237 15.7501 12.5255 18.1501 11.926C20.5501 11.3265 22.9501 12.6754 23.5501 15.0736L15.0001 17.3219Z" fill="url(#paint9_linear_1_840)"/>
  <path d="M15.0001 17.3219C14.4001 14.9237 15.7501 12.5255 18.1501 11.926C20.5501 11.3265 22.9501 12.6754 23.5501 15.0736L15.0001 17.3219Z" fill="url(#paint10_linear_1_840)"/>
  <path d="M23.5501 15.0737L15.0001 17.322L22.9501 46.55L31.3501 44.3017L23.5501 15.0737Z" fill="url(#paint11_linear_1_840)"/>
  <path d="M23.5501 15.0737L15.0001 17.322L22.9501 46.55L31.3501 44.3017L23.5501 15.0737Z" fill="url(#paint12_linear_1_840)"/>
  <defs>
    <linearGradient id="paint0_linear_1_840" x1="17.4964" y1="5.96233" x2="28.9913" y2="12.6043" gradientUnits="userSpaceOnUse">
      <stop stop-color="#C1D5F4"/>
      <stop offset="1" stop-color="#3F81D9"/>
    </linearGradient>
    <linearGradient id="paint1_linear_1_840" x1="24.7827" y1="0.0883789" x2="24.7827" y2="17.6838" gradientUnits="userSpaceOnUse">
      <stop stop-color="#44BBFE"/>
      <stop offset="1" stop-color="#1E78FE"/>
    </linearGradient>
    <linearGradient id="paint2_linear_1_840" x1="4.23999" y1="7.48429" x2="20.5331" y2="16.8987" gradientUnits="userSpaceOnUse">
      <stop stop-color="#C1D5F4"/>
      <stop offset="1" stop-color="#3F81D9"/>
    </linearGradient>
    <linearGradient id="paint3_linear_1_840" x1="11.9642" y1="3.72314" x2="11.9642" y2="17.8156" gradientUnits="userSpaceOnUse">
      <stop stop-color="#44BBFE"/>
      <stop offset="1" stop-color="#1E78FE"/>
    </linearGradient>
    <linearGradient id="paint4_linear_1_840" x1="11.2111" y1="23.8927" x2="35.1731" y2="37.7381" gradientUnits="userSpaceOnUse">
      <stop stop-color="#C1D5F4"/>
      <stop offset="1" stop-color="#2E76D6"/>
    </linearGradient>
    <linearGradient id="paint5_linear_1_840" x1="23.1751" y1="15.0737" x2="23.1751" y2="46.55" gradientUnits="userSpaceOnUse">
      <stop stop-color="#44BBFE"/>
      <stop offset="1" stop-color="#1E78FE"/>
    </linearGradient>
    <linearGradient id="paint6_linear_1_840" x1="3.45495" y1="17.9288" x2="41.9788" y2="40.1881" gradientUnits="userSpaceOnUse">
      <stop stop-color="#FADBAC"/>
      <stop offset="0.1738" stop-color="#FAD9A8"/>
      <stop offset="0.354" stop-color="#F9D49B"/>
      <stop offset="0.537" stop-color="#F8CC87"/>
      <stop offset="0.7221" stop-color="#F6C16A"/>
      <stop offset="0.907" stop-color="#F4B245"/>
      <stop offset="1" stop-color="#F3AA2F"/>
    </linearGradient>
    <linearGradient id="paint7_linear_1_840" x1="5.74458" y1="12.2496" x2="35.2515" y2="29.2986" gradientUnits="userSpaceOnUse">
      <stop stop-color="#FADBAC"/>
      <stop offset="0.1814" stop-color="#FAD9A8"/>
      <stop offset="0.3695" stop-color="#F9D49B"/>
      <stop offset="0.5605" stop-color="#F8CC87"/>
      <stop offset="0.7537" stop-color="#F7C16A"/>
      <stop offset="0.9467" stop-color="#F5B345"/>
      <stop offset="1" stop-color="#F4AE39"/>
    </linearGradient>
    <linearGradient id="paint8_linear_1_840" x1="5.23258" y1="30.26" x2="38.4766" y2="21.346" gradientUnits="userSpaceOnUse">
      <stop stop-color="#F7C374"/>
      <stop offset="1" stop-color="#F3A31F"/>
    </linearGradient>
    <linearGradient id="paint9_linear_1_840" x1="14.4577" y1="15.1716" x2="22.9377" y2="12.8977" gradientUnits="userSpaceOnUse">
      <stop stop-color="#C1D5F4"/>
      <stop offset="1" stop-color="#3F81D9"/>
    </linearGradient>
    <linearGradient id="paint10_linear_1_840" x1="19.2041" y1="11.7842" x2="19.2041" y2="17.3219" gradientUnits="userSpaceOnUse">
      <stop stop-color="#44BBFE"/>
      <stop offset="1" stop-color="#1E78FE"/>
    </linearGradient>
    <linearGradient id="paint11_linear_1_840" x1="11.2111" y1="23.8927" x2="35.1731" y2="37.7381" gradientUnits="userSpaceOnUse">
      <stop stop-color="#C1D5F4"/>
      <stop offset="1" stop-color="#2E76D6"/>
    </linearGradient>
    <linearGradient id="paint12_linear_1_840" x1="23.1751" y1="15.0737" x2="23.1751" y2="46.55" gradientUnits="userSpaceOnUse">
      <stop stop-color="#44BBFE"/>
      <stop offset="1" stop-color="#1E78FE"/>
    </linearGradient>
  </defs>
</svg>