<svg xmlns="http://www.w3.org/2000/svg" width="180" height="69" viewBox="0 0 180 69" fill="none">
  <path d="M0 56.835C0 62.9804 5.1 68.0765 11.25 68.0765H168.75C174.9 68.0765 180 62.9804 180 56.835V0.627441H0V56.835Z" fill="url(#paint0_linear_1_808)"/>
  <path d="M0 56.835C0 62.9804 5.1 68.0765 11.25 68.0765H168.75C174.9 68.0765 180 62.9804 180 56.835V0.627441H0V56.835Z" fill="url(#paint1_linear_1_808)"/>
  <path d="M154.65 50.5398C159.289 50.5398 163.05 46.7818 163.05 42.1461C163.05 37.5104 159.289 33.7524 154.65 33.7524C150.011 33.7524 146.25 37.5104 146.25 42.1461C146.25 46.7818 150.011 50.5398 154.65 50.5398Z" fill="url(#paint2_linear_1_808)"/>
  <path d="M137.85 50.5398C142.489 50.5398 146.25 46.7818 146.25 42.1461C146.25 37.5104 142.489 33.7524 137.85 33.7524C133.211 33.7524 129.45 37.5104 129.45 42.1461C129.45 46.7818 133.211 50.5398 137.85 50.5398Z" fill="white"/>
  <path d="M29.1 49.9409C28.05 50.2407 26.1 50.8402 24 50.8402C21.3 50.8402 19.2 50.0908 17.85 48.8917C16.5 47.5427 15.75 45.5942 15.75 43.3459C15.75 38.3996 19.5 35.4019 24.45 35.4019C26.4 35.4019 27.9 35.8515 28.65 36.1513L27.9 38.8493C27 38.3996 26.1 38.2497 24.45 38.2497C21.6 38.2497 19.5 39.8985 19.5 43.196C19.5 46.3436 21.45 48.1422 24.3 48.1422C25.05 48.1422 25.65 47.9924 25.95 47.9924V44.8447H23.55V41.847H29.25V49.9409H29.1Z" fill="white"/>
  <path d="M33.4501 38.2497C32.4001 38.2497 31.6501 37.5002 31.6501 36.6009C31.6501 35.7016 32.4001 34.9521 33.4501 34.9521C34.5001 34.9521 35.2501 35.7016 35.2501 36.6009C35.2501 37.5002 34.5001 38.2497 33.4501 38.2497ZM31.6501 50.5404V39.5986H35.1001V50.5404H31.6501Z" fill="white"/>
  <path d="M38.25 50.5398V42.1462H36.75V39.5981H38.25V39.1484C38.25 37.7994 38.7 36.3006 39.6 35.4013C40.5 34.6518 41.7 34.3521 42.6 34.3521C43.35 34.3521 43.95 34.5019 44.4 34.5019L44.25 37.05C43.95 36.9001 43.65 36.9001 43.2 36.9001C42.15 36.9001 41.55 37.7994 41.55 38.8487V39.4482H43.8V41.9963H41.55V50.3899H38.25V50.5398Z" fill="white"/>
  <path d="M49.6499 36.6006V39.5983H52.0499V42.1464H49.6499V46.0435C49.6499 47.3925 49.9499 47.992 50.9999 47.992C51.4499 47.992 51.7499 47.992 52.0499 47.8421V50.3902C51.5999 50.5401 50.8499 50.69 49.7999 50.69C48.7499 50.69 47.8499 50.2403 47.2499 49.7906C46.6499 49.1911 46.3499 48.1419 46.3499 46.4931V41.9965H44.8499V39.4484H46.3499V37.35L49.6499 36.6006Z" fill="white"/>
  <path d="M69.6 50.0907C68.85 50.3905 67.5 50.8401 65.55 50.8401C61.35 50.8401 58.05 48.1422 58.05 43.1959C58.05 38.3996 61.2 35.252 66 35.252C67.95 35.252 69.15 35.7016 69.6 35.8515L69.15 37.5003C68.4 37.2005 67.35 36.9007 66.15 36.9007C62.55 36.9007 60.3 39.149 60.3 43.1959C60.3 46.9431 62.4 49.3413 66.15 49.3413C67.35 49.3413 68.55 49.0415 69.3 48.7417L69.6 50.0907Z" fill="white"/>
  <path d="M77.8499 50.5399L77.6999 49.1909C77.0999 50.0902 75.8999 50.8396 74.3999 50.8396C72.1499 50.8396 71.0999 49.3408 71.0999 47.692C71.0999 45.1439 73.4999 43.6451 77.6999 43.6451V43.4952C77.6999 42.5959 77.3999 40.9471 75.2999 40.9471C74.2499 40.9471 73.1999 41.2469 72.4499 41.6965L71.9999 40.3476C72.8999 39.748 74.2499 39.4482 75.5999 39.4482C78.8999 39.4482 79.7999 41.6965 79.7999 43.9448V47.9918C79.7999 48.8911 79.7999 49.7904 79.9499 50.5399H77.8499ZM77.5499 44.9941C75.4499 44.9941 72.8999 45.2938 72.8999 47.3922C72.8999 48.5913 73.7999 49.3408 74.6999 49.3408C76.0499 49.3408 76.9499 48.4415 77.2499 47.5421C77.2499 47.3923 77.3999 47.0925 77.3999 46.9426V44.9941H77.5499Z" fill="white"/>
  <path d="M82.65 43.0455C82.65 41.8464 82.65 40.6473 82.5 39.5981H84.3V41.6965H84.45C84.9 40.1976 86.1 39.2983 87.45 39.2983C87.75 39.2983 87.9 39.2983 88.05 39.2983V41.097C87.9 41.097 87.6 41.097 87.45 41.097C86.1 41.097 85.05 42.1462 84.75 43.645C84.75 43.9448 84.6 44.2446 84.6 44.5444V50.3899H82.65V43.0455Z" fill="white"/>
  <path d="M99.15 34.6519V47.8419C99.15 48.7412 99.15 49.9403 99.3 50.6898H97.5L97.35 48.7413C96.75 49.9403 95.4 50.8397 93.6 50.8397C91.05 50.8397 88.95 48.5914 88.95 45.2938C88.95 41.6966 91.2 39.4482 93.75 39.4482C95.4 39.4482 96.6 40.1977 97.05 41.097V34.6519H99.15ZM97.2 44.0947C97.2 43.795 97.2 43.4952 97.05 43.1954C96.75 41.9963 95.7 40.9471 94.2 40.9471C92.1 40.9471 90.9 42.7458 90.9 45.1439C90.9 47.3923 91.95 49.1909 94.05 49.1909C95.4 49.1909 96.6 48.2916 96.9 46.7927C96.9 46.4929 97.05 46.1932 97.05 45.8934V44.0947H97.2Z" fill="white"/>
  <defs>
    <linearGradient id="paint0_linear_1_808" x1="0" y1="34.4097" x2="180" y2="34.4097" gradientUnits="userSpaceOnUse">
      <stop stop-color="#99BAED"/>
      <stop offset="1" stop-color="#3F81D9"/>
    </linearGradient>
    <linearGradient id="paint1_linear_1_808" x1="90" y1="0.627441" x2="90" y2="68.0765" gradientUnits="userSpaceOnUse">
      <stop stop-color="#44BBFE"/>
      <stop offset="1" stop-color="#1E78FE"/>
    </linearGradient>
    <linearGradient id="paint2_linear_1_808" x1="146.25" y1="42.1163" x2="163.125" y2="42.1163" gradientUnits="userSpaceOnUse">
      <stop stop-color="#D1E0F7"/>
      <stop offset="1" stop-color="#BAD2F1"/>
    </linearGradient>
  </defs>
</svg>