<svg width="180" height="114" viewBox="0 0 180 114" fill="none" xmlns="http://www.w3.org/2000/svg">
<path d="M168.75 0.521484H11.25C5.1 0.521484 0 5.62246 0 11.7736V23.0258H180V11.7736C180 5.62246 174.9 0.521484 168.75 0.521484Z" fill="url(#paint0_linear_1_876)"/>
<path d="M180 23.0259H0V45.5302H180V23.0259Z" fill="url(#paint1_linear_1_876)"/>
<path d="M0 101.791C0 107.942 5.1 113.043 11.25 113.043H168.75C174.9 113.043 180 107.942 180 101.791V45.5303H0V101.791Z" fill="url(#paint2_linear_1_876)"/>
<path d="M161.4 95.8033C166.039 95.8033 169.8 92.0417 169.8 87.4016C169.8 82.7615 166.039 79 161.4 79C156.761 79 153 82.7615 153 87.4016C153 92.0417 156.761 95.8033 161.4 95.8033Z" fill="url(#paint3_linear_1_876)"/>
<path d="M151.4 95.8033C156.039 95.8033 159.8 92.0417 159.8 87.4016C159.8 82.7615 156.039 79 151.4 79C146.761 79 143 82.7615 143 87.4016C143 92.0417 146.761 95.8033 151.4 95.8033Z" fill="white" fill-opacity="0.4"/>
<path d="M16.5 80.4871C17.4 80.337 19.2 80.187 20.85 80.187C22.95 80.187 24.15 80.337 25.35 81.0872C26.4 81.6873 27.15 82.7375 27.15 84.0877C27.15 85.438 26.4 86.6382 24.75 87.2384C26.55 87.6884 27.75 89.0387 27.75 90.9891C27.75 92.3393 27.15 93.5396 26.25 94.1397C25.2 95.0398 23.25 95.4899 20.25 95.4899C18.6 95.4899 17.25 95.3399 16.5 95.1899V80.4871ZM19.8 86.3382H21C22.8 86.3382 23.7 85.588 23.7 84.5378C23.7 83.3376 22.8 82.7375 21.3 82.7375C20.55 82.7375 20.1 82.7375 19.8 82.8875V86.3382ZM19.8 93.0895C20.1 93.0895 20.55 93.0895 21.15 93.0895C22.65 93.0895 24 92.4894 24 90.839C24 89.3388 22.65 88.7386 21 88.7386H19.8V93.0895Z" fill="white"/>
<path d="M39 92.7893C39 93.8395 39 94.8897 39.15 95.4898H36L35.85 94.4397C35.1 95.3398 34.05 95.7899 32.7 95.7899C30.45 95.7899 29.1 94.1396 29.1 92.4893C29.1 89.6387 31.65 88.2885 35.55 88.2885V88.1384C35.55 87.5383 35.25 86.7882 33.6 86.7882C32.55 86.7882 31.35 87.2383 30.6 87.5383L30 85.4379C30.75 84.9878 32.25 84.3877 34.2 84.3877C37.8 84.3877 39 86.4881 39 89.1886V92.7893ZM35.7 90.2388C33.9 90.2388 32.55 90.6889 32.55 92.0392C32.55 92.9394 33.15 93.3894 33.9 93.3894C34.8 93.3894 35.4 92.7893 35.7 92.1892C35.7 92.0392 35.7 91.7391 35.7 91.5891V90.2388Z" fill="white"/>
<path d="M41.85 87.9885C41.85 86.6383 41.85 85.438 41.7 84.5378H44.7L44.85 86.0381C45.3 85.288 46.35 84.2378 48.3 84.2378C50.55 84.2378 52.2 85.7381 52.2 89.0387V95.49H48.75V89.3388C48.75 87.9885 48.3 86.9383 47.1 86.9383C46.2 86.9383 45.6 87.5384 45.3 88.1385C45.15 88.2886 45.15 88.7387 45.15 89.0387V95.3399H41.7V87.9885H41.85Z" fill="white"/>
<path d="M58.35 89.0386C58.65 88.5885 58.95 88.1384 59.25 87.6883L61.5 84.5377H65.55L61.65 89.0386L66.15 95.6398H61.95L59.25 91.139L58.35 92.1892V95.6398H54.9V79.7368H58.35V89.0386Z" fill="white"/>
<path d="M82.65 94.8899C81.9 95.19 80.55 95.6401 78.6 95.6401C74.4 95.6401 71.1 92.9396 71.1 87.9886C71.1 83.1877 74.25 80.0371 79.05 80.0371C81 80.0371 82.2 80.4872 82.65 80.6372L82.2 82.2875C81.45 81.9875 80.4 81.6874 79.2 81.6874C75.6 81.6874 73.35 83.9379 73.35 87.9886C73.35 91.7393 75.45 94.1398 79.2 94.1398C80.4 94.1398 81.6 93.8397 82.35 93.5397L82.65 94.8899Z" fill="white"/>
<path d="M90.9 95.4898L90.75 94.1396C90.15 95.0397 88.95 95.7899 87.45 95.7899C85.2 95.7899 84.15 94.2896 84.15 92.6393C84.15 90.0888 86.55 88.5885 90.75 88.5885V88.4385C90.75 87.5383 90.45 85.888 88.35 85.888C87.3 85.888 86.25 86.188 85.5 86.6381L85.05 85.2879C85.95 84.6878 87.3 84.3877 88.65 84.3877C91.95 84.3877 92.85 86.6381 92.85 88.8886V92.9394C92.85 93.8395 92.85 94.7397 93 95.4898H90.9ZM90.6 89.9388C88.5 89.9388 85.95 90.2388 85.95 92.3392C85.95 93.5395 86.85 94.2896 87.75 94.2896C89.1 94.2896 90 93.3894 90.3 92.4893C90.3 92.3392 90.45 92.0392 90.45 91.8891V89.9388H90.6Z" fill="white"/>
<path d="M95.7 87.9885C95.7 86.7883 95.7 85.5881 95.55 84.5378H97.35V86.6382H97.5C97.95 85.138 99.15 84.2378 100.5 84.2378C100.8 84.2378 100.95 84.2378 101.1 84.2378V86.0381C100.95 86.0381 100.65 86.0381 100.5 86.0381C99.15 86.0381 98.1 87.0883 97.8 88.5886C97.8 88.8887 97.65 89.1888 97.65 89.4888V95.3399H95.7V87.9885Z" fill="white"/>
<path d="M112.2 79.5869V92.7895C112.2 93.6896 112.2 94.8899 112.35 95.64H110.55L110.4 93.6896C109.8 94.8899 108.45 95.79 106.65 95.79C104.1 95.79 102 93.5396 102 90.239C102 86.6383 104.25 84.3878 106.8 84.3878C108.45 84.3878 109.65 85.138 110.1 86.0382V79.5869H112.2ZM110.25 89.0387C110.25 88.7387 110.25 88.4386 110.1 88.1386C109.8 86.9383 108.75 85.8881 107.25 85.8881C105.15 85.8881 103.95 87.6885 103.95 90.0889C103.95 92.3394 105 94.1397 107.1 94.1397C108.45 94.1397 109.65 93.2396 109.95 91.7393C109.95 91.4392 110.1 91.1391 110.1 90.8391V89.0387H110.25Z" fill="white"/>
<defs>
<linearGradient id="paint0_linear_1_876" x1="90" y1="0.521484" x2="90" y2="23.0258" gradientUnits="userSpaceOnUse">
<stop stop-color="#707070"/>
<stop offset="0.495" stop-color="#3E3E3E"/>
<stop offset="1" stop-color="#0A0A0A"/>
</linearGradient>
<linearGradient id="paint1_linear_1_876" x1="0" y1="34.2723" x2="180" y2="34.2723" gradientUnits="userSpaceOnUse">
<stop stop-color="white"/>
<stop offset="0.0001" stop-color="#AEAEAE"/>
<stop offset="0.0002" stop-color="#909090"/>
<stop offset="0.0003" stop-color="#6B6B6B"/>
<stop offset="0.0004" stop-color="#535353"/>
<stop offset="1"/>
</linearGradient>
<linearGradient id="paint2_linear_1_876" x1="90" y1="45.5303" x2="90" y2="113.043" gradientUnits="userSpaceOnUse">
<stop stop-color="#5C5C5C"/>
<stop offset="0.225" stop-color="#161616"/>
<stop offset="1" stop-color="#060606"/>
</linearGradient>
<linearGradient id="paint3_linear_1_876" x1="153" y1="87.4582" x2="169.875" y2="87.4582" gradientUnits="userSpaceOnUse">
<stop stop-color="#BEBEBE" stop-opacity="0.31"/>
<stop offset="1" stop-color="#6A6A6A"/>
</linearGradient>
</defs>
</svg>
