<svg width="33" height="49" viewBox="0 0 33 49" fill="none" xmlns="http://www.w3.org/2000/svg">
<path d="M3.65517 0.292204C3.52364 0.548502 3.52364 0.804802 3.65517 0.932951C9.44259 8.49377 6.68041 16.0546 3.52363 23.9998C0.498392 31.9451 -2.65838 40.0185 3.65517 48.22C3.7867 48.3482 4.04976 48.4763 4.1813 48.4763C12.2048 48.4763 20.3598 48.4763 28.3832 48.4763C28.6463 48.4763 28.9094 48.3482 29.0409 48.0919C29.1724 47.8356 29.1724 47.5793 29.0409 47.4511C23.2535 39.8903 26.1472 32.3295 29.1724 24.5124C30.8823 19.899 32.7238 15.2857 32.7238 10.6723C32.7238 7.21226 31.8031 3.75224 29.0409 0.292204C28.9094 0.164054 28.6463 0.0359025 28.5148 0.0359025H4.31283C4.04976 -0.0922469 3.7867 0.164054 3.65517 0.292204Z" fill="url(#paint0_linear_2316_51)"/>
<path d="M24.1742 23.2299C24.9634 23.2299 25.8841 23.2299 26.6733 23.2299C26.4103 23.9988 26.1472 24.7677 25.7526 25.5366C24.9634 25.5366 24.1742 25.5366 23.5166 25.5366C22.8589 27.0744 21.8066 28.6122 21.0174 29.5092C20.0967 29.2529 19.3075 28.9966 18.3868 28.8685C19.3075 27.8433 20.2283 26.5618 20.8859 25.024C21.412 23.7425 21.149 22.7173 20.2283 22.7173C19.3075 22.7173 18.3868 23.4862 17.203 25.2803C15.3616 27.8433 13.6516 29.5092 11.2841 29.5092C9.17954 29.5092 7.99575 28.0996 8.39035 25.5366C7.60115 25.5366 6.81196 25.5366 6.1543 25.5366C6.41736 24.7677 6.68043 23.9988 7.07502 23.2299C7.73269 23.2299 8.52188 23.2299 9.17954 23.2299C9.8372 21.6921 10.6264 20.5388 11.2841 19.7699C12.0733 20.0262 12.994 20.2825 13.7832 20.4106C13.257 21.0514 12.3363 22.0765 11.6787 23.7425C11.1525 25.2803 11.5471 25.7929 12.3363 25.7929C13.1255 25.7929 13.9147 25.024 15.4931 22.9736C17.5976 20.1543 19.176 19.1291 21.412 19.1291C23.385 19.001 24.7003 20.4106 24.1742 23.2299Z" fill="url(#paint1_linear_2316_51)"/>
<defs>
<linearGradient id="paint0_linear_2316_51" x1="16.3619" y1="0.00264489" x2="16.3619" y2="48.4781" gradientUnits="userSpaceOnUse">
<stop stop-color="#42CA99"/>
<stop offset="1" stop-color="#0E7C59"/>
</linearGradient>
<linearGradient id="paint1_linear_2316_51" x1="16.4233" y1="29.46" x2="16.4233" y2="19.0338" gradientUnits="userSpaceOnUse">
<stop stop-color="#C1D5F4"/>
<stop offset="1" stop-color="white"/>
</linearGradient>
</defs>
</svg>
