<svg width="180" height="114" viewBox="0 0 180 114" fill="none" xmlns="http://www.w3.org/2000/svg">
<path d="M168.75 0.521484H11.25C5.1 0.521484 0 5.62246 0 11.7736V23.0258H180V11.7736C180 5.62246 174.9 0.521484 168.75 0.521484Z" fill="url(#paint0_linear_2322_52)"/>
<path d="M180 23.0259H0V45.5302H180V23.0259Z" fill="url(#paint1_linear_2322_52)"/>
<path d="M0 101.791C0 107.942 5.1 113.043 11.25 113.043H168.75C174.9 113.043 180 107.942 180 101.791V45.5303H0V101.791Z" fill="url(#paint2_linear_2322_52)"/>
<path d="M161.4 95.8033C166.039 95.8033 169.8 92.0417 169.8 87.4016C169.8 82.7615 166.039 79 161.4 79C156.761 79 153 82.7615 153 87.4016C153 92.0417 156.761 95.8033 161.4 95.8033Z" fill="url(#paint3_linear_2322_52)"/>
<path d="M151.4 95.8033C156.039 95.8033 159.8 92.0417 159.8 87.4016C159.8 82.7615 156.039 79 151.4 79C146.761 79 143 82.7615 143 87.4016C143 92.0417 146.761 95.8033 151.4 95.8033Z" fill="#FFC746"/>
<path d="M23.1849 93.6978C22.3052 93.9612 20.6715 94.4881 18.912 94.4881C16.6499 94.4881 14.8905 93.8295 13.7594 92.7759C12.6284 91.5905 12 89.8784 12 87.9028C12 83.5565 15.1418 80.9224 19.289 80.9224C20.9228 80.9224 22.1795 81.3175 22.8079 81.5809L22.1795 83.9516C21.4255 83.5565 20.6715 83.4248 19.289 83.4248C16.9013 83.4248 15.1418 84.8735 15.1418 87.7711C15.1418 90.5369 16.7756 92.1174 19.1634 92.1174C19.7917 92.1174 20.2944 91.9857 20.5458 91.9857V89.2198H18.535V86.5857H23.3106V93.6978H23.1849Z" fill="#FFC442"/>
<path d="M26.8295 83.4249C25.9498 83.4249 25.3214 82.7664 25.3214 81.9761C25.3214 81.1859 25.9498 80.5273 26.8295 80.5273C27.7092 80.5273 28.3376 81.1859 28.3376 81.9761C28.3376 82.7664 27.7092 83.4249 26.8295 83.4249ZM25.3214 94.2248V84.6102H28.2119V94.2248H25.3214Z" fill="#FFC442"/>
<path d="M30.851 94.2242V86.8487H29.5942V84.6097H30.851V84.2146C30.851 83.0292 31.228 81.7122 31.982 80.9219C32.7361 80.2634 33.7415 80 34.4955 80C35.1239 80 35.6266 80.1317 36.0036 80.1317L35.8779 82.3707C35.6266 82.239 35.3752 82.239 34.9982 82.239C34.1185 82.239 33.6158 83.0292 33.6158 83.9512V84.478H35.5009V86.717H33.6158V94.0925H30.851V94.2242Z" fill="#FFC442"/>
<path d="M40.4021 81.9756V84.6097H42.4129V86.8487H40.4021V90.2731C40.4021 91.4584 40.6534 91.9853 41.5332 91.9853C41.9102 91.9853 42.1615 91.9852 42.4129 91.8535V94.0925C42.0358 94.2242 41.4075 94.3559 40.5278 94.3559C39.6481 94.3559 38.894 93.9608 38.3913 93.5657C37.8886 93.0389 37.6373 92.117 37.6373 90.6682V86.717H36.3806V84.478H37.6373V82.6341L40.4021 81.9756Z" fill="#FFC442"/>
<path d="M57.1167 93.8294C56.4883 94.0928 55.3573 94.4879 53.7235 94.4879C50.2047 94.4879 47.4398 92.1172 47.4398 87.7709C47.4398 83.5563 50.079 80.7905 54.1005 80.7905C55.7343 80.7905 56.7397 81.1856 57.1167 81.3173L56.7397 82.7661C56.1113 82.5027 55.2316 82.2393 54.2262 82.2393C51.21 82.2393 49.3249 84.2149 49.3249 87.7709C49.3249 91.0636 51.0844 93.1709 54.2262 93.1709C55.2316 93.1709 56.237 92.9074 56.8653 92.644L57.1167 93.8294Z" fill="#FFC442"/>
<path d="M64.0287 94.2243L63.903 93.0389C63.4003 93.8291 62.3949 94.4877 61.1382 94.4877C59.2531 94.4877 58.3734 93.1706 58.3734 91.7218C58.3734 89.4828 60.3842 88.1658 63.903 88.1658V88.0341C63.903 87.2439 63.6517 85.7951 61.8922 85.7951C61.0125 85.7951 60.1328 86.0585 59.5044 86.4536L59.1274 85.2683C59.8815 84.7414 61.0125 84.478 62.1436 84.478C64.9084 84.478 65.6624 86.4536 65.6624 88.4292V91.9853C65.6624 92.7755 65.6624 93.5657 65.7881 94.2243H64.0287ZM63.7773 89.3512C62.0179 89.3512 59.8815 89.6146 59.8815 91.4584C59.8815 92.5121 60.6355 93.1706 61.3895 93.1706C62.5206 93.1706 63.2746 92.3804 63.526 91.5902C63.526 91.4584 63.6517 91.195 63.6517 91.0633V89.3512H63.7773Z" fill="#FFC442"/>
<path d="M68.0503 87.6388C68.0503 86.5852 68.0503 85.5315 67.9246 84.6096H69.4327V86.4535H69.5583C69.9354 85.1364 70.9407 84.3462 72.0718 84.3462C72.3232 84.3462 72.4488 84.3462 72.5745 84.3462V85.9267C72.4488 85.9267 72.1975 85.9267 72.0718 85.9267C70.9407 85.9267 70.061 86.8486 69.8097 88.1656C69.8097 88.4291 69.684 88.6925 69.684 88.9559V94.0924H68.0503V87.6388V87.6388Z" fill="#FFC442"/>
<path d="M81.8743 80.2637V91.8538C81.8743 92.644 81.8743 93.6977 82 94.3562H80.4919L80.3663 92.6441C79.8636 93.6977 78.7325 94.4879 77.2244 94.4879C75.088 94.4879 73.3286 92.5123 73.3286 89.6148C73.3286 86.4539 75.2137 84.4783 77.3501 84.4783C78.7325 84.4783 79.7379 85.1368 80.1149 85.927V80.2637H81.8743ZM80.2406 88.5612C80.2406 88.2977 80.2406 88.0343 80.1149 87.7709C79.8636 86.7173 78.9838 85.7953 77.7271 85.7953C75.9677 85.7953 74.9623 87.3758 74.9623 89.4831C74.9623 91.4587 75.842 93.0392 77.6014 93.0392C78.7325 93.0392 79.7379 92.2489 79.9892 90.9319C79.9892 90.6685 80.1149 90.405 80.1149 90.1416V88.5612H80.2406Z" fill="#FFC442"/>
<defs>
<linearGradient id="paint0_linear_2322_52" x1="90" y1="0.521484" x2="90" y2="23.0258" gradientUnits="userSpaceOnUse">
<stop stop-color="#707070"/>
<stop offset="0.495" stop-color="#3E3E3E"/>
<stop offset="1" stop-color="#0A0A0A"/>
</linearGradient>
<linearGradient id="paint1_linear_2322_52" x1="0" y1="34.2723" x2="180" y2="34.2723" gradientUnits="userSpaceOnUse">
<stop stop-color="white"/>
<stop offset="0.0001" stop-color="#AEAEAE"/>
<stop offset="0.0002" stop-color="#909090"/>
<stop offset="0.0003" stop-color="#6B6B6B"/>
<stop offset="0.0004" stop-color="#535353"/>
<stop offset="1"/>
</linearGradient>
<linearGradient id="paint2_linear_2322_52" x1="90" y1="45.5303" x2="90" y2="113.043" gradientUnits="userSpaceOnUse">
<stop stop-color="#5C5C5C"/>
<stop offset="0.225" stop-color="#161616"/>
<stop offset="1" stop-color="#060606"/>
</linearGradient>
<linearGradient id="paint3_linear_2322_52" x1="153" y1="87.4582" x2="169.875" y2="87.4582" gradientUnits="userSpaceOnUse">
<stop stop-color="#BEBEBE" stop-opacity="0.31"/>
<stop offset="1" stop-color="#6A6A6A"/>
</linearGradient>
</defs>
</svg>
