<svg width="48" height="48" viewBox="0 0 48 48" fill="none" xmlns="http://www.w3.org/2000/svg">
<rect width="48" height="48" rx="24" fill="url(#paint0_linear_2278_150)"/>
<path d="M30.7745 14.1272C30.9227 13.9669 31.1709 13.9566 31.3312 14.1048C31.4914 14.253 31.5018 14.5012 31.3536 14.6614L28.1276 18.1528L28.1224 18.1597C27.7278 18.637 27.4572 19.0782 27.3366 19.4815C27.2297 19.8382 27.2453 20.1622 27.4038 20.4448C27.4882 20.5964 27.4607 20.7825 27.3487 20.9049L25.8167 22.5627C25.6667 22.399 25.5478 22.2663 25.4685 22.1801C25.4324 22.1319 25.391 22.0853 25.3479 22.0405L25.3445 22.044C25.3238 22.0216 25.3014 22.0009 25.279 21.9802L26.5887 20.562C26.4353 20.1518 26.437 19.7158 26.5783 19.2523C26.73 18.7491 27.0522 18.2131 27.5158 17.6548C27.5262 17.641 27.5348 17.6272 27.5468 17.6151L30.7711 14.1238L30.7745 14.1272ZM23.8452 23.4795C23.7005 23.3175 23.7142 23.0676 23.8762 22.9229C24.0382 22.7781 24.2881 22.7919 24.4329 22.9539C26.0545 24.7702 31.0675 30.1451 32.4565 32.1545C34.2883 34.748 31.4518 35.5649 30.5109 34.6205C28.1603 32.3475 23.1697 26.5521 20.9759 24.0947C20.1867 24.429 19.4198 24.4807 18.6495 24.2601C17.8206 24.024 17.0089 23.4709 16.1852 22.6213L16.1749 22.6109C15.5476 21.9492 15.0565 21.2961 14.7015 20.6498C14.3378 19.9847 14.1155 19.3264 14.0363 18.6732C13.9518 17.9701 14.0173 17.3153 14.2069 16.7345C14.4292 16.0521 14.8238 15.4748 15.3408 15.0457C15.8612 14.6149 16.5006 14.3357 17.214 14.2496C17.8068 14.1789 18.4531 14.2392 19.1217 14.4581C20.0471 14.7596 21.1259 15.5093 22.0203 16.4709C22.6803 17.1791 23.2455 18.008 23.5815 18.8611C23.9314 19.7503 24.0382 20.6705 23.7573 21.5322C23.5919 22.0423 23.292 22.5213 22.8268 22.9539C22.6665 23.1021 22.4183 23.0917 22.2701 22.9332C22.1219 22.7729 22.1323 22.5248 22.2908 22.3766C22.651 22.0405 22.8819 21.6735 23.0077 21.2857C23.2248 20.6188 23.1335 19.8795 22.8474 19.1523C22.5476 18.3906 22.0392 17.6462 21.443 17.0068C20.6365 16.1417 19.68 15.4714 18.8735 15.2077C18.3204 15.0285 17.7913 14.9768 17.3071 15.0354C16.7453 15.1043 16.2421 15.3197 15.8405 15.6558C15.4373 15.9918 15.1288 16.445 14.9513 16.9844C14.798 17.4549 14.7445 17.996 14.8152 18.5802C14.8824 19.1316 15.0737 19.6951 15.3873 20.2707C15.7165 20.8618 16.168 21.4598 16.7487 22.0716L16.7522 22.0767C17.4794 22.8264 18.1773 23.3089 18.8684 23.5053C19.5215 23.6914 20.1867 23.6191 20.8812 23.2727C21.0397 23.1813 21.2448 23.2124 21.3706 23.3537C23.5109 25.7508 28.7169 31.784 31.0227 34.0191C32.0239 34.4275 32.5788 33.9243 32.0998 33.0368C31.3536 31.6513 24.9429 24.7133 23.8452 23.4795ZM21.7669 26.945L16.7418 32.382C16.7315 32.3923 16.7229 32.4027 16.7108 32.413C15.9767 33.2057 17.276 34.3603 18.0825 33.5883L22.9629 28.3064L23.4868 28.9009L18.6443 34.1414C18.634 34.1535 18.6237 34.1638 18.6099 34.1759C18.3204 34.4189 18.0291 34.5774 17.7344 34.6429C17.4311 34.7119 17.133 34.6808 16.8469 34.5464C16.7987 34.5275 16.7539 34.5033 16.7143 34.4671L16.0198 33.8244C16.0094 33.814 15.9991 33.8054 15.9888 33.7933C15.7199 33.4832 15.5924 33.1523 15.6269 32.8025C15.6596 32.4716 15.8354 32.1493 16.168 31.8391L21.2413 26.3487L21.7669 26.945ZM27.0333 23.9017L27.3314 23.5794C27.4796 23.4192 27.7295 23.4088 27.888 23.557C28.0466 23.7052 28.0586 23.9534 27.9104 24.1136L27.5658 24.4859L27.0333 23.9017ZM31.9998 15.2801C32.148 15.1198 32.3962 15.1095 32.5564 15.2577C32.7167 15.4059 32.727 15.654 32.5788 15.8143L29.7509 18.8766C29.6027 19.0368 29.3546 19.0472 29.1943 18.899C29.034 18.7508 29.0237 18.5026 29.1719 18.3424L31.9998 15.2801ZM33.2233 16.4123C33.3715 16.252 33.6197 16.2417 33.78 16.3899C33.9402 16.5381 33.9506 16.7862 33.8024 16.9465L30.9762 20.0071C30.828 20.1673 30.5798 20.1777 30.4195 20.0295C30.2593 19.8813 30.2489 19.6331 30.3971 19.4728L33.2233 16.4123ZM34.4917 17.5893C34.6399 17.429 34.888 17.4187 35.0483 17.5669C35.2086 17.7151 35.2189 17.965 35.0707 18.1235L31.8447 21.6166C31.8326 21.6287 31.8206 21.639 31.8085 21.6511C31.0744 22.3576 30.373 22.766 29.7027 22.8815C28.9754 23.0073 28.3085 22.8005 27.6968 22.2663C27.533 22.1232 27.5175 21.8734 27.6588 21.7114C27.8019 21.5477 28.0518 21.5322 28.2137 21.6735C28.6359 22.0423 29.0874 22.187 29.5648 22.1026C30.0783 22.0147 30.6436 21.6752 31.2605 21.0807L31.264 21.0772L34.4882 17.5876L34.4917 17.5893Z" fill="white" stroke="white" stroke-width="0.00064"/>
<defs>
<linearGradient id="paint0_linear_2278_150" x1="24" y1="0" x2="24" y2="48" gradientUnits="userSpaceOnUse">
<stop stop-color="#F0C7BA"/>
<stop offset="0.0001" stop-color="#FFAC97"/>
<stop offset="1" stop-color="#CC4C30"/>
</linearGradient>
</defs>
</svg>
