<svg width="48" height="48" viewBox="0 0 48 48" fill="none" xmlns="http://www.w3.org/2000/svg">
<rect width="48" height="48" rx="24" fill="url(#paint0_linear_2279_170)"/>
<path d="M34.8969 20.7356C34.1282 16.5362 29.5445 13.6679 25.6263 13.1055C25.317 13.0586 24.9983 13.0305 24.6608 13.0211C24.2203 12.993 23.7797 12.993 23.3579 13.0211C23.0017 13.0305 22.683 13.0586 22.3737 13.1055C18.4555 13.6679 13.8718 16.5362 13.1031 20.7356L13 21.298L13.5718 21.2699C15.8683 21.1574 18.1086 21.6917 19.7209 22.7228L19.9084 22.8447L20.124 22.7697C21.2863 22.3385 22.6736 22.226 23.3954 22.1885L23.5548 22.1792C23.611 22.1792 24.2015 22.1792 24.2859 22.1698L24.614 22.1792C25.4951 22.2167 26.7793 22.3479 27.876 22.7603L28.0916 22.8353L28.2791 22.7135C29.8914 21.6824 32.141 21.1574 34.4282 21.2605L35 21.2887L34.8969 20.7356ZM33.8189 20.3419C31.6349 20.3419 29.5914 20.8575 27.9791 21.8323C26.8168 21.4386 25.542 21.3168 24.6515 21.2699L24.3234 21.2605C24.2109 21.2605 23.5641 21.2605 23.5173 21.2605L23.3485 21.2699C22.458 21.3074 21.1738 21.4386 20.0209 21.8323C18.4086 20.8669 16.3651 20.3419 14.1811 20.3419C14.1623 20.3419 14.1436 20.3419 14.1342 20.3419C15.0997 16.8737 19.0741 14.5021 22.4955 14.0147C22.7674 13.9772 23.0579 13.9491 23.3954 13.9397C23.7891 13.9116 24.1922 13.9116 24.6046 13.9397C24.9233 13.9491 25.2139 13.9772 25.4857 14.0147C28.9165 14.5115 32.8816 16.8737 33.8658 20.3513C33.8564 20.3419 33.8377 20.3419 33.8189 20.3419Z" fill="white" stroke="white" stroke-width="0.25"/>
<path d="M24.1453 28.947C22.9173 28.5159 22.158 28.1972 22.0456 27.316C21.9612 26.6786 22.4392 26.0037 23.1142 25.7975C23.8172 25.5913 24.7639 25.6756 25.6544 26.0318C25.8888 26.1256 26.1512 26.0131 26.245 25.7787C26.3387 25.5444 26.2262 25.2819 25.9919 25.1882C25.4763 24.982 24.942 24.8508 24.4265 24.8039V23.904C24.4265 23.6509 24.2202 23.4447 23.9672 23.4447C23.7141 23.4447 23.5078 23.6509 23.5078 23.904V24.8039C23.2829 24.832 23.0579 24.8695 22.8517 24.9257C21.7456 25.2538 20.9957 26.3599 21.1363 27.4379C21.3332 28.9283 22.6642 29.397 23.8453 29.8094C24.4921 30.0344 25.092 30.25 25.4576 30.5968C25.7856 30.9061 25.9544 31.2998 25.9544 31.7123C25.9544 32.1153 25.7669 32.509 25.4388 32.7996C25.0732 33.1277 24.5764 33.3152 23.939 33.362C23.461 33.3902 22.9079 33.3339 22.233 33.2121C22.0737 33.1839 21.8956 33.1464 21.7456 33.0996C21.5019 33.0246 21.2488 33.1652 21.1738 33.4089C21.0988 33.6526 21.2394 33.9057 21.4831 33.9807C21.68 34.0369 21.8862 34.0838 22.0643 34.1119C22.608 34.215 23.0673 34.2619 23.4985 34.2807V35.1618C23.4985 35.4149 23.7047 35.6211 23.9578 35.6211C24.2109 35.6211 24.4171 35.4149 24.4171 35.1618V34.2244C25.0732 34.1119 25.6169 33.8776 26.0481 33.4839C26.573 33.0152 26.8636 32.3966 26.873 31.7217C26.8824 31.0467 26.6012 30.4187 26.095 29.9407C25.5888 29.4532 24.8577 29.2001 24.1453 28.947Z" fill="white" stroke="white" stroke-width="0.25"/>
<defs>
<linearGradient id="paint0_linear_2279_170" x1="24" y1="0" x2="24" y2="48" gradientUnits="userSpaceOnUse">
<stop stop-color="#F0C7BA"/>
<stop offset="0.0001" stop-color="#FFAC97"/>
<stop offset="1" stop-color="#CC4C30"/>
</linearGradient>
</defs>
</svg>
