<svg width="48" height="48" viewBox="0 0 48 48" fill="none" xmlns="http://www.w3.org/2000/svg">
<rect width="48" height="48" rx="24" fill="url(#paint0_linear_2280_232)"/>
<path d="M28.6243 26.135C28.6243 23.5613 26.5379 21.4749 23.9642 21.4749C21.3908 21.4749 19.3044 23.5614 19.3044 26.135C19.3044 28.7087 21.3908 30.7951 23.9642 30.7951C26.5379 30.7951 28.6243 28.7087 28.6243 26.135ZM29.7425 26.135C29.7425 29.3262 27.1555 31.9133 23.9642 31.9133C20.7732 31.9133 18.1862 29.3262 18.1862 26.135C18.1862 22.9438 20.7732 20.3567 23.9642 20.3567C27.1554 20.3567 29.7425 22.9438 29.7425 26.135Z" fill="white" stroke="white" stroke-width="0.0416667"/>
<path d="M23.4053 23.8637V28.4064C23.4053 28.7152 23.6556 28.9655 23.9644 28.9655C24.2732 28.9655 24.5235 28.7152 24.5235 28.4064V23.8637C24.5235 23.5549 24.2732 23.3046 23.9644 23.3046C23.6556 23.3046 23.4053 23.5549 23.4053 23.8637Z" fill="white" stroke="white" stroke-width="0.0416667"/>
<path d="M26.2356 25.5759H21.6929C21.3841 25.5759 21.1338 25.8262 21.1338 26.135C21.1338 26.4438 21.3841 26.6941 21.6929 26.6941H26.2356C26.5444 26.6941 26.7947 26.4438 26.7947 26.135C26.7947 25.8262 26.5444 25.5759 26.2356 25.5759ZM22.5044 16.8437L20.3094 12.5244C20.2149 12.3384 20.35 12.1182 20.5587 12.1182H27.4282C27.6369 12.1182 27.7719 12.3383 27.6773 12.5242L25.4825 16.8437C25.3426 17.119 25.4524 17.4556 25.7277 17.5955C26.003 17.7354 26.3395 17.6256 26.4794 17.3503L28.6741 13.0309C29.147 12.1012 28.4714 11 27.4282 11H20.5588C19.5157 11 18.8401 12.101 19.3125 13.0309L21.5076 17.3503C21.6475 17.6256 21.984 17.7354 22.2593 17.5954C22.5346 17.4555 22.6443 17.119 22.5044 16.8437H22.5044Z" fill="white" stroke="white" stroke-width="0.0416667"/>
<path d="M29.8367 33.8818C32.6159 33.8818 34.8687 31.629 34.8687 28.8499V27.6719C34.8687 22.2918 30.4645 17.8876 25.0844 17.8876H22.9025C17.5224 17.8876 13.1182 22.2918 13.1182 27.6719V28.8499C13.1182 31.629 15.3712 33.8818 18.1501 33.8818H29.8367ZM29.8367 35H18.1501C14.7536 35 12 32.2465 12 28.8499V27.6719C12 21.6742 16.9048 16.7694 22.9025 16.7694H25.0844C31.082 16.7694 35.9869 21.6742 35.9869 27.6719V28.8499C35.9869 32.2466 33.2335 35 29.8367 35Z" fill="white" stroke="white" stroke-width="0.0416667"/>
<defs>
<linearGradient id="paint0_linear_2280_232" x1="24" y1="0" x2="24" y2="48" gradientUnits="userSpaceOnUse">
<stop stop-color="#44CD9B"/>
<stop offset="1" stop-color="#0B7856"/>
</linearGradient>
</defs>
</svg>
