<svg width="48" height="48" viewBox="0 0 48 48" fill="none" xmlns="http://www.w3.org/2000/svg">
<rect width="48" height="48" rx="24" fill="url(#paint0_linear_2280_233)"/>
<path d="M22.8699 17.8598C22.8699 16.9354 20.9192 16.0033 18.4367 16.0033C15.954 16.0033 14.0033 16.9354 14.0033 17.8598C14.0033 18.7842 15.954 19.7163 18.4367 19.7163C20.9192 19.7163 22.8699 18.7842 22.8699 17.8598ZM23.8731 17.8598C23.8731 19.5403 21.4051 20.7196 18.4367 20.7196C15.4681 20.7196 13 19.5403 13 17.8598C13 16.1793 15.4681 15 18.4367 15C21.4051 15 23.8731 16.1793 23.8731 17.8598ZM22.8699 26.9959C22.8699 27.9203 20.9192 28.8524 18.4367 28.8524C15.954 28.8524 14.0033 27.9203 14.0033 26.9959H13C13 28.6764 15.4681 29.8557 18.4367 29.8557C21.4051 29.8557 23.8731 28.6763 23.8731 26.9959H22.8699ZM22.8699 30.1402C22.8699 31.0646 20.9192 31.9967 18.4367 31.9967C15.954 31.9967 14.0033 31.0646 14.0033 30.1402H13C13 31.8207 15.4681 33 18.4367 33C21.4051 33 23.8731 31.8206 23.8731 30.1402H22.8699ZM22.8699 23.8777C22.8699 24.8021 20.9192 25.7342 18.4367 25.7342C15.954 25.7342 14.0033 24.8021 14.0033 23.8777H13C13 25.5582 15.4681 26.7375 18.4367 26.7375C21.4051 26.7375 23.8731 25.5582 23.8731 23.8777H22.8699ZM22.8699 20.9954C22.8699 21.9198 20.9192 22.8519 18.4367 22.8519C15.954 22.8519 14.0033 21.9198 14.0033 20.9954H13C13 22.6759 15.4681 23.8552 18.4367 23.8552C21.4051 23.8552 23.8731 22.6758 23.8731 20.9954H22.8699Z" fill="white" stroke="white" stroke-width="0.000426667"/>
<path d="M13.0001 17.8598V30.3936C13.0001 30.6706 13.2247 30.8952 13.5018 30.8952C13.7788 30.8952 14.0034 30.6706 14.0034 30.3936V17.8598C14.0034 17.5827 13.7788 17.3582 13.5018 17.3582C13.2247 17.3582 13.0001 17.5827 13.0001 17.8598ZM22.8699 17.8598V30.3936C22.8699 30.6706 23.0945 30.8952 23.3715 30.8952C23.6486 30.8952 23.8731 30.6706 23.8731 30.3936V17.8598C23.8731 17.5827 23.6486 17.3582 23.3715 17.3582C23.0945 17.3582 22.8699 17.5827 22.8699 17.8598ZM34.9369 23.0294C36.1882 23.4616 37.0447 24.6434 37.0447 25.9887C37.0447 27.7174 35.6436 29.1186 33.9148 29.1186C32.759 29.1186 31.7148 28.4871 31.1687 27.4919C31.0355 27.249 30.7305 27.1601 30.4877 27.2933C30.2448 27.4266 30.1559 27.7315 30.2891 27.9744C31.0096 29.2877 32.3891 30.1219 33.9148 30.1219C36.1976 30.1219 38.048 28.2715 38.048 25.9887C38.048 24.2123 36.9171 22.6519 35.2644 22.0811C35.0026 21.9907 34.717 22.1297 34.6265 22.3915C34.5361 22.6534 34.675 22.939 34.9369 23.0294Z" fill="white" stroke="white" stroke-width="0.000426667"/>
<path d="M32.2286 22.0111C32.2286 20.2826 30.8273 18.8812 29.0987 18.8812C27.3702 18.8812 25.9687 20.2827 25.9687 22.0111C25.9687 23.7396 27.3702 25.1411 29.0987 25.1411C30.8273 25.1411 32.2286 23.7397 32.2286 22.0111ZM33.2319 22.0111C33.2319 24.2938 31.3814 26.1443 29.0987 26.1443C26.8161 26.1443 24.9655 24.2937 24.9655 22.0111C24.9655 19.7286 26.8161 17.8779 29.0987 17.8779C31.3814 17.8779 33.2319 19.7285 33.2319 22.0111Z" fill="white" stroke="white" stroke-width="0.000426667"/>
<defs>
<linearGradient id="paint0_linear_2280_233" x1="24" y1="0" x2="24" y2="48" gradientUnits="userSpaceOnUse">
<stop stop-color="#F0C7BA"/>
<stop offset="0.0001" stop-color="#FFAC97"/>
<stop offset="1" stop-color="#CC4C30"/>
</linearGradient>
</defs>
</svg>
