<svg width="48" height="48" viewBox="0 0 48 48" fill="none" xmlns="http://www.w3.org/2000/svg">
<rect width="48" height="48" rx="24" fill="url(#paint0_linear_2278_161)"/>
<path d="M27.3981 24.8942C28.6179 25.283 29.4531 26.3467 29.4531 27.5574C29.4531 29.1133 28.087 30.3743 26.4015 30.3743C25.2745 30.3743 24.2566 29.8061 23.724 28.91C23.5634 28.6398 23.1959 28.541 22.9032 28.6892C22.6105 28.8375 22.5034 29.1767 22.664 29.4469C23.4069 30.6966 24.8287 31.4903 26.4015 31.4903C28.7547 31.4903 30.6621 29.7297 30.6621 27.5575C30.6621 25.8671 29.4963 24.3823 27.7927 23.8393C27.4772 23.7387 27.133 23.8933 27.024 24.1846C26.915 24.4759 27.0825 24.7936 27.3981 24.8942L27.3981 24.8942Z" fill="white" stroke="white" stroke-width="0.00064"/>
<path d="M24.6045 23.8611C24.6045 22.3055 23.2381 21.0442 21.5529 21.0442C19.8678 21.0442 18.5014 22.3055 18.5014 23.8611C18.5014 25.4166 19.8678 26.6779 21.5529 26.6779C23.2381 26.6779 24.6045 25.4166 24.6045 23.8611ZM25.8135 23.8611C25.8135 26.033 23.9059 27.7939 21.5529 27.7939C19.2 27.7939 17.2924 26.033 17.2924 23.8611C17.2924 21.6891 19.2 19.9282 21.5529 19.9282C23.9059 19.9282 25.8135 21.6891 25.8135 23.8611Z" fill="white" stroke="white" stroke-width="0.00064"/>
<path d="M12.0291 22.7165L23.4051 12.3556C23.7567 12.0354 24.3224 12.0363 24.673 12.3577L35.9695 22.7152C36.2064 22.9324 36.5891 22.9312 36.8244 22.7125C37.0597 22.4939 37.0584 22.1406 36.8215 21.9234L25.525 11.5659C24.7041 10.8132 23.3795 10.8111 22.5559 11.5612L11.1799 21.9221C10.9423 22.1385 10.9397 22.4918 11.1742 22.7112C11.4087 22.9305 11.7915 22.9329 12.0291 22.7165Z" fill="white" stroke="white" stroke-width="0.00064"/>
<path d="M32.0099 18.9253V33.0151C32.0099 33.4772 31.6038 33.8521 31.1031 33.8521H16.8972C16.3965 33.8521 15.9904 33.4772 15.9904 33.0151V18.9253C15.9904 18.6171 15.7198 18.3673 15.3859 18.3673C15.052 18.3673 14.7814 18.6171 14.7814 18.9253V33.0151C14.7814 34.0936 15.7288 34.9681 16.8972 34.9681H31.1031C32.2715 34.9681 33.2189 34.0936 33.2189 33.0151V18.9253C33.2189 18.6171 32.9483 18.3673 32.6144 18.3673C32.2805 18.3673 32.0099 18.6171 32.0099 18.9253Z" fill="white" stroke="white" stroke-width="0.00064"/>
<defs>
<linearGradient id="paint0_linear_2278_161" x1="24" y1="0" x2="24" y2="48" gradientUnits="userSpaceOnUse">
<stop stop-color="#F0C7BA"/>
<stop offset="0.0001" stop-color="#FFAC97"/>
<stop offset="1" stop-color="#CC4C30"/>
</linearGradient>
</defs>
</svg>
