<svg width="48" height="48" viewBox="0 0 48 48" fill="none" xmlns="http://www.w3.org/2000/svg">
<rect width="48" height="48" rx="24" fill="url(#paint0_linear_2278_161)"/>
<path d="M27.1368 25.8942C28.2627 26.283 29.0336 27.3467 29.0336 28.5574C29.0336 30.1133 27.7727 31.3743 26.2168 31.3743C25.1764 31.3743 24.2369 30.8061 23.7452 29.91C23.597 29.6398 23.2578 29.541 22.9876 29.6892C22.7174 29.8375 22.6185 30.1767 22.7668 30.4469C23.4525 31.6966 24.7649 32.4903 26.2168 32.4903C28.389 32.4903 30.1496 30.7297 30.1496 28.5575C30.1496 26.8671 29.0735 25.3823 27.501 24.8393C27.2097 24.7387 26.892 24.8933 26.7914 25.1846C26.6908 25.4759 26.8454 25.7936 27.1367 25.8942L27.1368 25.8942Z" fill="white" stroke="white" stroke-width="0.00064"/>
<path d="M24.558 24.8611C24.558 23.3055 23.2968 22.0442 21.7412 22.0442C20.1856 22.0442 18.9244 23.3055 18.9244 24.8611C18.9244 26.4166 20.1856 27.6779 21.7412 27.6779C23.2968 27.6779 24.558 26.4166 24.558 24.8611ZM25.674 24.8611C25.674 27.033 23.9131 28.7939 21.7412 28.7939C19.5693 28.7939 17.8083 27.033 17.8083 24.8611C17.8083 22.6891 19.5693 20.9282 21.7412 20.9282C23.9131 20.9282 25.674 22.6891 25.674 24.8611Z" fill="white" stroke="white" stroke-width="0.00064"/>
<path d="M12.9499 23.7165L23.4508 13.3556C23.7754 13.0354 24.2976 13.0363 24.6212 13.3577L35.0488 23.7152C35.2674 23.9324 35.6207 23.9312 35.8379 23.7125C36.0551 23.4939 36.0539 23.1406 35.8352 22.9234L25.4077 12.5659C24.6499 11.8132 23.4272 11.8111 22.667 12.5612L12.1661 22.9221C11.9467 23.1385 11.9443 23.4918 12.1608 23.7112C12.3773 23.9305 12.7306 23.9329 12.9499 23.7165Z" fill="white" stroke="white" stroke-width="0.00064"/>
<path d="M31.3937 19.9253V34.0151C31.3937 34.4772 31.0189 34.8521 30.5567 34.8521H17.4435C16.9814 34.8521 16.6065 34.4772 16.6065 34.0151V19.9253C16.6065 19.6171 16.3567 19.3673 16.0485 19.3673C15.7403 19.3673 15.4905 19.6171 15.4905 19.9253V34.0151C15.4905 35.0936 16.365 35.9681 17.4435 35.9681H30.5567C31.6352 35.9681 32.5098 35.0936 32.5098 34.0151V19.9253C32.5098 19.6171 32.2599 19.3673 31.9518 19.3673C31.6436 19.3673 31.3937 19.6171 31.3937 19.9253Z" fill="white" stroke="white" stroke-width="0.00064"/>
<defs>
<linearGradient id="paint0_linear_2278_161" x1="24" y1="0" x2="24" y2="48" gradientUnits="userSpaceOnUse">
<stop stop-color="#F0C7BA"/>
<stop offset="0.0001" stop-color="#FFAC97"/>
<stop offset="1" stop-color="#CC4C30"/>
</linearGradient>
</defs>
</svg>
