<svg width="48" height="48" viewBox="0 0 48 48" fill="none" xmlns="http://www.w3.org/2000/svg">
<rect width="48" height="48" rx="24" fill="url(#paint0_linear_2280_286)"/>
<path d="M25.7143 19.8575C24.295 19.8575 23.1429 21.0088 23.1429 22.4289C23.1429 23.8489 24.295 25.001 25.7143 25.001C27.1351 25.001 28.2856 23.8497 28.2856 22.4289C28.2856 21.008 27.1343 19.8575 25.7143 19.8575ZM25.7143 24.1431C24.7697 24.1431 24.0001 23.3742 24.0001 22.428C24.0001 21.4819 24.7689 20.7138 25.7143 20.7138C26.6604 20.7138 27.4285 21.4827 27.4285 22.428C27.4285 23.3734 26.6596 24.1431 25.7143 24.1431Z" fill="white" stroke="#30B083" stroke-width="0.256"/>
<path d="M15.4283 16V28.8572H35.9999V16H15.4283ZM35.1436 18.8999V28.0001H16.2863V16.8571H35.1436V18.8999Z" fill="white" stroke="#30B083" stroke-width="0.256"/>
<path d="M31.4031 29.7152H14.5714V17.7151H13.7142V30.5723H34.2866V29.7152H33.4295H31.4031Z" fill="white" stroke="#30B083" stroke-width="0.256"/>
<path d="M29.6888 31.4293H12.8571V19.4292H12V32.2864H32.5724V31.4293H31.7153H29.6888Z" fill="white" stroke="#30B083" stroke-width="0.256"/>
<path d="M17.5719 17.7413H20.1432V18.5984H17.5719V17.7413Z" fill="white" stroke="#30B083" stroke-width="0.256"/>
<path d="M17.5719 26.2866H20.1432V27.1437H17.5719V26.2866Z" fill="white" stroke="#30B083" stroke-width="0.256"/>
<path d="M31.2863 17.7413H33.8576V18.5984H31.2863V17.7413Z" fill="white" stroke="#30B083" stroke-width="0.256"/>
<path d="M31.2863 26.2866H33.8576V27.1437H31.2863V26.2866Z" fill="white" stroke="#30B083" stroke-width="0.256"/>
<defs>
<linearGradient id="paint0_linear_2280_286" x1="24" y1="0" x2="24" y2="48" gradientUnits="userSpaceOnUse">
<stop stop-color="#44CD9B"/>
<stop offset="1" stop-color="#0B7856"/>
</linearGradient>
</defs>
</svg>
