<svg width="48" height="48" viewBox="0 0 48 48" fill="none" xmlns="http://www.w3.org/2000/svg">
<rect width="48" height="48" rx="24" fill="url(#paint0_linear_2284_309)"/>
<path d="M25 20C23.3441 20 22 21.343 22 22.9995C22 24.6561 23.3441 26 25 26C26.6578 26 28 24.657 28 22.9995C28 21.342 26.6568 20 25 20ZM25 24.9992C23.898 24.9992 23 24.1023 23 22.9986C23 21.8948 23.897 20.9989 25 20.9989C26.1039 20.9989 27 21.8958 27 22.9986C27 24.1014 26.103 24.9992 25 24.9992Z" fill="white"/>
<path d="M12 15V31H37V15H12ZM35.9593 18.6088V29.9333H13.0427V16.0667H35.9593V18.6088Z" fill="white"/>
<path d="M31.4958 31.9333H11.0416V17H10V33H35V31.9333H33.9584H31.4958Z" fill="white" fill-opacity="0.65"/>
<path d="M15 17H18V18H15V17Z" fill="white"/>
<path d="M15 28H18V29H15V28Z" fill="white"/>
<path d="M32 17H35V18H32V17Z" fill="white"/>
<path d="M32 28H35V29H32V28Z" fill="white"/>
<defs>
<linearGradient id="paint0_linear_2284_309" x1="24" y1="0" x2="24" y2="48" gradientUnits="userSpaceOnUse">
<stop stop-color="#44CD9B"/>
<stop offset="1" stop-color="#0B7856"/>
</linearGradient>
</defs>
</svg>
