<svg width="48" height="48" viewBox="0 0 48 48" fill="none" xmlns="http://www.w3.org/2000/svg">
<rect width="48" height="48" rx="24" fill="url(#paint0_linear_2279_213)"/>
<path d="M32.8434 19.2499H17.9412L16.9374 14.9844C16.7937 14.4102 16.4079 14 15.8642 14H13.9844C13.4407 14 13 14.4407 13 14.9844C13 15.5281 13.4407 15.9687 13.9844 15.9687H15.206L18.8379 31.2125C18.1249 31.5082 17.6232 32.211 17.6232 33.031C17.6232 34.118 18.5049 34.9997 19.5919 34.9997C20.5671 34.9997 21.3746 34.2903 21.5311 33.3591H26.1543C26.3112 34.2903 27.1184 34.9997 28.0935 34.9997C29.1806 34.9997 30.0623 34.118 30.0623 33.031C30.0623 31.9439 29.1806 31.0623 28.0935 31.0623C27.1184 31.0623 26.3109 31.7723 26.1543 32.7029H21.5311C21.3743 31.7723 20.5671 31.0623 19.5919 31.0623C19.5509 31.0623 19.5112 31.0662 19.4709 31.0685L19.2602 30.3276C19.4006 30.3745 19.5532 30.406 19.7281 30.406H30.5459C31.4072 30.406 31.8282 29.7813 32.0224 29.0935L33.9692 20.5624C34.1126 19.7693 33.7585 19.2499 32.8434 19.2499ZM28.0935 31.7185C28.8184 31.7185 29.406 32.3062 29.406 33.031C29.406 33.7558 28.8184 34.3435 28.0935 34.3435C27.3687 34.3435 26.7811 33.7558 26.7811 33.031C26.7811 32.3062 27.3687 31.7185 28.0935 31.7185ZM20.9044 33.031C20.9044 33.7558 20.3168 34.3435 19.5919 34.3435C18.8671 34.3435 18.2795 33.7558 18.2795 33.031C18.2795 32.3062 18.8671 31.7185 19.5919 31.7185C20.3168 31.7185 20.9044 32.3062 20.9044 33.031ZM15.7496 15.513C15.7496 15.513 15.6991 15.3125 15.4704 15.3125C15.2417 15.3125 13.9844 15.3125 13.9844 15.3125C13.8029 15.3125 13.6562 15.1658 13.6562 14.9844C13.6562 14.8029 13.8029 14.6562 13.9844 14.6562H15.8983C16.0797 14.6562 16.2277 14.8055 16.2812 14.9844L17.2849 19.2499H17.4355C17.1104 19.2499 16.8594 19.3185 16.6733 19.4389L15.7496 15.513ZM33.3349 20.5624L31.3662 29.0935C31.2773 29.4765 31.0312 29.7498 30.669 29.7498H19.6054C19.2438 29.7498 18.9984 29.4765 18.9098 29.0935L16.945 20.5624C16.8426 20.1591 16.986 19.9062 17.4303 19.9062H32.8483C33.2939 19.9062 33.4373 20.1591 33.3349 20.5624Z" fill="white" stroke="white" stroke-width="0.000380952"/>
<path d="M28.0936 33.3591C28.2748 33.3591 28.4217 33.2122 28.4217 33.031C28.4217 32.8498 28.2748 32.7029 28.0936 32.7029C27.9124 32.7029 27.7655 32.8498 27.7655 33.031C27.7655 33.2122 27.9124 33.3591 28.0936 33.3591Z" fill="white" stroke="white" stroke-width="0.000380952"/>
<path d="M19.5918 33.3591C19.773 33.3591 19.9199 33.2122 19.9199 33.031C19.9199 32.8498 19.773 32.7029 19.5918 32.7029C19.4106 32.7029 19.2637 32.8498 19.2637 33.031C19.2637 33.2122 19.4106 33.3591 19.5918 33.3591Z" fill="white" stroke="white" stroke-width="0.000380952"/>
<path d="M25.1405 21.2186C24.5968 21.2186 24.1561 21.6593 24.1561 22.203V27.4529C24.1561 27.9966 24.5968 28.4373 25.1405 28.4373C25.6842 28.4373 26.1248 27.9966 26.1248 27.4529V22.203C26.1248 21.6593 25.6842 21.2186 25.1405 21.2186ZM25.4686 27.4529C25.4686 27.6344 25.3219 27.781 25.1405 27.781C24.959 27.781 24.8124 27.6344 24.8124 27.4529V22.203C24.8124 22.0215 24.959 21.8749 25.1405 21.8749C25.3219 21.8749 25.4686 22.0215 25.4686 22.203V27.4529Z" fill="white" stroke="white" stroke-width="0.000380952"/>
<path d="M28.4216 21.2186C27.8779 21.2186 27.4373 21.6593 27.4373 22.203V27.4529C27.4373 27.9966 27.8779 28.4373 28.4216 28.4373C28.9653 28.4373 29.406 27.9966 29.406 27.4529V22.203C29.406 21.6593 28.9653 21.2186 28.4216 21.2186ZM28.7497 27.4529C28.7497 27.6344 28.6031 27.781 28.4216 27.781C28.2402 27.781 28.0935 27.6344 28.0935 27.4529V22.203C28.0935 22.0215 28.2402 21.8749 28.4216 21.8749C28.6031 21.8749 28.7497 22.0215 28.7497 22.203V27.4529Z" fill="white" stroke="white" stroke-width="0.000380952"/>
<path d="M21.8592 21.2186C21.3155 21.2186 20.8749 21.6593 20.8749 22.203V27.4529C20.8749 27.9966 21.3155 28.4373 21.8592 28.4373C22.4029 28.4373 22.8436 27.9966 22.8436 27.4529V22.203C22.8436 21.6593 22.4029 21.2186 21.8592 21.2186ZM22.1874 27.4529C22.1874 27.6344 22.0407 27.781 21.8592 27.781C21.6778 27.781 21.5311 27.6344 21.5311 27.4529V22.203C21.5311 22.0215 21.6778 21.8749 21.8592 21.8749C22.0407 21.8749 22.1874 22.0215 22.1874 22.203V27.4529Z" fill="white" stroke="white" stroke-width="0.000380952"/>
<defs>
<linearGradient id="paint0_linear_2279_213" x1="24" y1="0" x2="24" y2="48" gradientUnits="userSpaceOnUse">
<stop stop-color="#F0C7BA"/>
<stop offset="0.0001" stop-color="#FFAC97"/>
<stop offset="1" stop-color="#CC4C30"/>
</linearGradient>
</defs>
</svg>
