<svg width="48" height="48" viewBox="0 0 48 48" fill="none" xmlns="http://www.w3.org/2000/svg">
<rect width="48" height="48" rx="24" fill="url(#paint0_linear_2274_108)"/>
<path d="M24.5 24.5001H34.3279C34.3306 25.79 34.0781 27.0677 33.5849 28.2596C33.0918 29.4515 32.3677 30.5341 31.4545 31.4451L24.5 24.5001ZM24.5 24.5001V14.6534C22.8836 14.6536 21.2922 15.0524 19.8667 15.8146C18.4412 16.5767 17.2258 17.6788 16.328 19.023C15.4302 20.3672 14.8779 21.9121 14.7199 23.5208C14.5619 25.1295 14.8032 26.7523 15.4223 28.2455C16.0414 29.7386 17.0192 31.0561 18.2692 32.081C19.5191 33.1059 21.0026 33.8067 22.5881 34.1213C24.1736 34.4359 25.8123 34.3546 27.3588 33.8845C28.9054 33.4144 30.3122 32.5701 31.4545 31.4264" stroke="white" stroke-width="1.43768" stroke-miterlimit="10"/>
<path d="M28.0756 20.9059H31.2018C31.5568 20.9059 31.8972 20.7648 32.1482 20.5138C32.3992 20.2628 32.5402 19.9224 32.5402 19.5674C32.5402 19.2124 32.3992 18.872 32.1482 18.621C31.8972 18.3699 31.5568 18.2289 31.2018 18.2289H30.2658C29.9099 18.2265 29.5695 18.0834 29.3188 17.8309C29.068 17.5784 28.9273 17.237 28.9273 16.8811C28.9272 16.7021 28.9631 16.525 29.0327 16.3601C29.1023 16.1952 29.2042 16.046 29.3325 15.9212C29.4608 15.7964 29.6128 15.6986 29.7795 15.6336C29.9462 15.5686 30.1243 15.5376 30.3032 15.5426H33.4388" stroke="white" stroke-width="1.43768" stroke-miterlimit="10"/>
<path d="M30.7524 13.7549V15.5426" stroke="white" stroke-width="1.43768" stroke-miterlimit="10"/>
<path d="M30.7524 20.9059V22.6936" stroke="white" stroke-width="1.43768" stroke-miterlimit="10"/>
<defs>
<linearGradient id="paint0_linear_2274_108" x1="24" y1="0" x2="24" y2="48" gradientUnits="userSpaceOnUse">
<stop stop-color="#FFCC4F"/>
<stop offset="1" stop-color="#FF9D06"/>
</linearGradient>
</defs>
</svg>
