<svg width="150" height="150" viewBox="0 0 150 150" fill="none" xmlns="http://www.w3.org/2000/svg">
<rect width="150" height="150" fill="url(#paint0_linear_2409_113)"/>
<mask id="path-2-inside-1_2409_113" fill="white">
<path d="M85.8746 76.2806L84.7202 74.3842C83.9729 74.8393 83.5626 75.6905 83.6723 76.5586C83.7815 77.4262 84.3903 78.149 85.2273 78.4043L85.8746 76.2806ZM65.1252 76.2806L65.7727 78.4043C66.6095 78.149 67.2183 77.4262 67.328 76.5586C67.4372 75.6905 67.0269 74.8393 66.2796 74.3842L65.1252 76.2806ZM93.2609 59.201C93.2609 65.6303 89.846 71.2641 84.7202 74.3842L87.0291 78.177C93.423 74.2847 97.7011 67.2435 97.7011 59.201H93.2609ZM75.5001 41.4402C85.309 41.4402 93.2609 49.392 93.2609 59.201H97.7011C97.7011 46.9397 87.7613 37 75.5001 37V41.4402ZM57.7392 59.201C57.7392 49.392 65.691 41.4402 75.5001 41.4402V37C63.2387 37 53.299 46.9397 53.299 59.201H57.7392ZM66.2796 74.3842C61.1541 71.2641 57.7392 65.6304 57.7392 59.201H53.299C53.299 67.2435 57.5769 74.2847 63.9708 78.177L66.2796 74.3842ZM64.4777 74.1569C50.4611 78.431 39.9056 90.6393 38.0491 105.557L42.4552 106.106C44.0919 92.9544 53.4049 82.1754 65.7727 78.4043L64.4777 74.1569ZM38.0491 105.557C37.5584 109.5 40.8247 112.483 44.4186 112.483V108.043C43.1081 108.043 42.3402 107.03 42.4552 106.106L38.0491 105.557ZM44.4186 112.483H106.581V108.043H44.4186V112.483ZM106.581 112.483C110.175 112.483 113.442 109.5 112.951 105.557L108.544 106.106C108.659 107.03 107.892 108.043 106.581 108.043V112.483ZM112.951 105.557C111.094 90.6393 100.539 78.431 86.522 74.1569L85.2273 78.4043C97.595 82.1754 106.908 92.9544 108.544 106.106L112.951 105.557Z"/>
</mask>
<path d="M85.8746 76.2806L84.7202 74.3842C83.9729 74.8393 83.5626 75.6905 83.6723 76.5586C83.7815 77.4262 84.3903 78.149 85.2273 78.4043L85.8746 76.2806ZM65.1252 76.2806L65.7727 78.4043C66.6095 78.149 67.2183 77.4262 67.328 76.5586C67.4372 75.6905 67.0269 74.8393 66.2796 74.3842L65.1252 76.2806ZM93.2609 59.201C93.2609 65.6303 89.846 71.2641 84.7202 74.3842L87.0291 78.177C93.423 74.2847 97.7011 67.2435 97.7011 59.201H93.2609ZM75.5001 41.4402C85.309 41.4402 93.2609 49.392 93.2609 59.201H97.7011C97.7011 46.9397 87.7613 37 75.5001 37V41.4402ZM57.7392 59.201C57.7392 49.392 65.691 41.4402 75.5001 41.4402V37C63.2387 37 53.299 46.9397 53.299 59.201H57.7392ZM66.2796 74.3842C61.1541 71.2641 57.7392 65.6304 57.7392 59.201H53.299C53.299 67.2435 57.5769 74.2847 63.9708 78.177L66.2796 74.3842ZM64.4777 74.1569C50.4611 78.431 39.9056 90.6393 38.0491 105.557L42.4552 106.106C44.0919 92.9544 53.4049 82.1754 65.7727 78.4043L64.4777 74.1569ZM38.0491 105.557C37.5584 109.5 40.8247 112.483 44.4186 112.483V108.043C43.1081 108.043 42.3402 107.03 42.4552 106.106L38.0491 105.557ZM44.4186 112.483H106.581V108.043H44.4186V112.483ZM106.581 112.483C110.175 112.483 113.442 109.5 112.951 105.557L108.544 106.106C108.659 107.03 107.892 108.043 106.581 108.043V112.483ZM112.951 105.557C111.094 90.6393 100.539 78.431 86.522 74.1569L85.2273 78.4043C97.595 82.1754 106.908 92.9544 108.544 106.106L112.951 105.557Z" fill="white"/>
<path d="M38.0491 105.557L38.1726 104.565L37.9255 106.55L38.0491 105.557ZM112.951 105.557L113.075 106.55L112.827 104.565L112.951 105.557ZM40.3758 104.84L38.1727 104.565L37.9255 106.55L40.1286 106.824L40.3758 104.84ZM110.871 106.824L113.075 106.55L112.827 104.565L110.624 104.84L110.871 106.824ZM97.7011 58.201H93.2609V60.201H97.7011V58.201ZM74.5001 37V41.4402H76.5001V37H74.5001ZM53.299 60.201H57.7392V58.201H53.299V60.201ZM37.9256 106.55L42.3317 107.098L42.5787 105.113L38.1726 104.565L37.9256 106.55ZM45.4186 112.483V108.043H43.4186V112.483H45.4186ZM107.581 112.483V108.043H105.581V112.483H107.581ZM112.827 104.565L108.421 105.113L108.668 107.098L113.074 106.55L112.827 104.565ZM85.8746 76.2806L87.7877 76.8638L88.0491 76.0063L87.583 75.2406L85.8746 76.2806ZM84.7202 74.3842L83.6803 72.6758L83.6799 72.6761L84.7202 74.3842ZM83.6723 76.5586L85.6566 76.3087L85.6565 76.3079L83.6723 76.5586ZM85.2273 78.4043L84.6437 80.3173L84.644 80.3174L85.2273 78.4043ZM65.1252 76.2806L63.4168 75.2407L62.9507 76.0064L63.2121 76.8639L65.1252 76.2806ZM65.7727 78.4043L66.356 80.3174L66.3563 80.3173L65.7727 78.4043ZM67.328 76.5586L69.3122 76.8094L69.3123 76.8083L67.328 76.5586ZM66.2796 74.3842L67.3199 72.676L67.3195 72.6758L66.2796 74.3842ZM38.0491 105.557L40.0338 105.804L40.0338 105.804L38.0491 105.557ZM112.951 105.557L114.936 105.31L114.936 105.31L112.951 105.557ZM87.0291 78.177L85.3207 79.217L86.3607 80.9253L88.0691 79.8854L87.0291 78.177ZM63.9708 78.177L62.9309 79.8854L64.6393 80.9253L65.6792 79.2169L63.9708 78.177ZM64.4777 74.1569L66.3908 73.5736L65.8075 71.6605L63.8944 72.2438L64.4777 74.1569ZM42.4552 106.106L40.4706 105.859L40.4705 105.859L42.4552 106.106ZM108.544 106.106L110.529 105.859L110.529 105.859L108.544 106.106ZM86.522 74.1569L87.1054 72.2438L85.1922 71.6604L84.6089 73.5737L86.522 74.1569ZM87.583 75.2406L86.4285 73.3442L83.0118 75.4242L84.1663 77.3206L87.583 75.2406ZM83.6799 72.6761C82.2597 73.541 81.4796 75.1591 81.6881 76.8093L85.6565 76.3079C85.6457 76.2219 85.6862 76.1376 85.7605 76.0923L83.6799 72.6761ZM81.688 76.8084C81.8957 78.4581 83.0531 79.8321 84.6437 80.3173L85.8108 76.4914C85.7275 76.466 85.6674 76.3942 85.6566 76.3087L81.688 76.8084ZM87.1404 78.9875L87.7877 76.8638L83.9616 75.6974L83.3142 77.8212L87.1404 78.9875ZM63.2121 76.8639L63.8596 78.9876L67.6858 77.8211L67.0382 75.6973L63.2121 76.8639ZM66.3563 80.3173C67.9468 79.832 69.1037 78.4582 69.3122 76.8094L65.3438 76.3077C65.3328 76.3941 65.2722 76.466 65.189 76.4914L66.3563 80.3173ZM69.3123 76.8083C69.5199 75.1588 68.7402 73.541 67.3199 72.676L65.2393 76.0924C65.3136 76.1376 65.3545 76.2222 65.3436 76.3089L69.3123 76.8083ZM64.5712 73.3443L63.4168 75.2407L66.8335 77.3205L67.988 75.4241L64.5712 73.3443ZM91.2609 59.201C91.2609 64.904 88.2344 69.9037 83.6803 72.6758L85.7601 76.0926C91.4575 72.6245 95.2609 66.3566 95.2609 59.201H91.2609ZM83.0118 75.4242L85.3207 79.217L88.7374 77.137L86.4285 73.3442L83.0118 75.4242ZM88.0691 79.8854C95.0339 75.6455 99.7011 67.9705 99.7011 59.201H95.7011C95.7011 66.5165 91.812 72.924 85.9891 76.4687L88.0691 79.8854ZM75.5001 43.4402C84.2044 43.4402 91.2609 50.4965 91.2609 59.201H95.2609C95.2609 48.2874 86.4135 39.4402 75.5001 39.4402V43.4402ZM99.7011 59.201C99.7011 45.8352 88.8658 35 75.5001 35V39C86.6567 39 95.7011 48.0443 95.7011 59.201H99.7011ZM59.7392 59.201C59.7392 50.4965 66.7955 43.4402 75.5001 43.4402V39.4402C64.5864 39.4402 55.7392 48.2874 55.7392 59.201H59.7392ZM75.5001 35C62.1342 35 51.299 45.8351 51.299 59.201H55.299C55.299 48.0443 64.3433 39 75.5001 39V35ZM67.3195 72.6758C62.7656 69.9037 59.7392 64.9041 59.7392 59.201H55.7392C55.7392 66.3566 59.5425 72.6245 65.2396 76.0926L67.3195 72.6758ZM51.299 59.201C51.299 67.9704 55.966 75.6455 62.9309 79.8854L65.0108 76.4687C59.1879 72.924 55.299 66.5165 55.299 59.201H51.299ZM65.6792 79.2169L67.988 75.4241L64.5712 73.3443L62.2624 77.1371L65.6792 79.2169ZM63.8944 72.2438C49.1353 76.7444 38.02 89.5963 36.0644 105.31L40.0338 105.804C41.7912 91.6823 51.787 80.1176 65.0611 76.0699L63.8944 72.2438ZM44.4399 106.353C45.9776 93.9972 54.731 83.862 66.356 80.3174L65.1894 76.4913C52.0788 80.4888 42.2062 91.9117 40.4706 105.859L44.4399 106.353ZM67.6858 77.8211L66.3908 73.5736L62.5647 74.7401L63.8596 78.9876L67.6858 77.8211ZM36.0644 105.31C35.4018 110.634 39.8193 114.483 44.4186 114.483V110.483C41.8301 110.483 39.7149 108.366 40.0338 105.804L36.0644 105.31ZM44.4186 106.043C44.3519 106.043 44.328 106.031 44.3327 106.033C44.3358 106.034 44.3512 106.042 44.37 106.062C44.398 106.093 44.4608 106.185 44.4399 106.353L40.4705 105.859C40.1956 108.069 42.0007 110.043 44.4186 110.043V106.043ZM44.4186 114.483H106.581V110.483H44.4186V114.483ZM106.581 106.043H44.4186V110.043H106.581V106.043ZM106.581 114.483C111.181 114.483 115.598 110.634 114.936 105.31L110.966 105.804C111.285 108.367 109.17 110.483 106.581 110.483V114.483ZM106.56 106.353C106.539 106.186 106.602 106.093 106.63 106.063C106.648 106.042 106.664 106.034 106.667 106.033C106.672 106.031 106.648 106.043 106.581 106.043V110.043C109 110.043 110.804 108.069 110.529 105.859L106.56 106.353ZM114.936 105.31C112.98 89.5963 101.865 76.7444 87.1054 72.2438L85.9387 76.0699C99.213 80.1176 109.209 91.6823 110.966 105.804L114.936 105.31ZM84.6089 73.5737L83.3142 77.8212L87.1404 78.9875L88.4351 74.74L84.6089 73.5737ZM84.644 80.3174C96.2689 83.862 105.022 93.9972 106.56 106.353L110.529 105.859C108.794 91.9117 98.9211 80.4888 85.8106 76.4913L84.644 80.3174Z" fill="white" mask="url(#path-2-inside-1_2409_113)"/>
<defs>
<linearGradient id="paint0_linear_2409_113" x1="75" y1="0" x2="75" y2="150" gradientUnits="userSpaceOnUse">
<stop stop-color="#D8D8D8"/>
<stop offset="1" stop-color="#5C5C5C"/>
</linearGradient>
</defs>
</svg>
