<svg width="100" height="118" viewBox="0 0 100 118" fill="none" xmlns="http://www.w3.org/2000/svg">
<path d="M91.7061 23.5455C93.802 14.7335 88.3575 5.89087 79.5455 3.79497C70.7335 1.69908 61.8909 7.14356 59.795 15.9556C57.6991 24.7676 63.1435 33.6102 71.9556 35.7061C80.7676 37.802 89.6102 32.3575 91.7061 23.5455Z" fill="url(#paint0_linear_2325_54)"/>
<path d="M56 117.7V83.4C56 59.5 75.4 40 99.4 40V74.3C99.4 98.2 79.9 117.7 56 117.7Z" fill="url(#paint1_linear_2325_54)"/>
<path d="M48.3 98V48.3C48.3 21.6 26.7 0 0 0V49.7C0 76.4 21.6 98 48.3 98Z" fill="url(#paint2_linear_2325_54)"/>
<defs>
<linearGradient id="paint0_linear_2325_54" x1="59.795" y1="15.9556" x2="91.7061" y2="23.5455" gradientUnits="userSpaceOnUse">
<stop stop-color="#FFCF53"/>
<stop offset="1" stop-color="#FF9900"/>
</linearGradient>
<linearGradient id="paint1_linear_2325_54" x1="77.7" y1="40" x2="77.7" y2="117.7" gradientUnits="userSpaceOnUse">
<stop stop-color="#888989"/>
<stop offset="1" stop-color="#0C0C0C"/>
</linearGradient>
<linearGradient id="paint2_linear_2325_54" x1="24.15" y1="0" x2="24.15" y2="98" gradientUnits="userSpaceOnUse">
<stop stop-color="#8C8C8C"/>
<stop offset="1" stop-color="#070707"/>
</linearGradient>
</defs>
</svg>
