<svg xmlns="http://www.w3.org/2000/svg" width="63" height="95" viewBox="0 0 63 95" fill="none">
  <path d="M7.75001 0.966577C7.60002 1.41666 7.60001 2.01678 7.90001 2.31684C19 17.1697 13.6 31.7225 7.75001 47.1755C1.90002 62.6284 -4.09999 78.5315 7.90001 94.4345C8.20001 94.7346 8.50001 94.8846 8.95001 94.8846C24.25 94.8846 39.7 94.8846 55 94.8846C55.45 94.8846 55.9 94.5846 56.2 94.1345C56.35 93.6844 56.35 93.0843 56.05 92.7842C44.95 77.9314 50.5 63.3786 56.2 47.9256C59.5 39.0739 62.95 29.9221 62.95 20.7704C62.95 14.0191 61.15 7.26779 56.05 0.516492C55.75 0.216434 55.45 0.0664062 55 0.0664062H8.95001C8.50001 0.216435 8.05001 0.51649 7.75001 0.966577Z" fill="url(#paint0_linear_1_890)"/>
  <defs>
    <linearGradient id="paint0_linear_1_890" x1="31.9552" y1="0.0664062" x2="31.9552" y2="94.8846" gradientUnits="userSpaceOnUse">
      <stop stop-color="#FFCF53"/>
      <stop offset="1" stop-color="#FF9900"/>
    </linearGradient>
  </defs>
</svg>