<svg xmlns="http://www.w3.org/2000/svg" width="107" height="180" viewBox="0 0 107 180" fill="none">
  <path d="M34.35 104.27C30.9 104.27 28.05 107.121 28.05 110.571C28.05 114.022 30.9 116.872 34.35 116.872C37.8 116.872 40.65 114.022 40.65 110.571C40.65 107.121 37.95 104.27 34.35 104.27Z" fill="url(#paint0_linear_1_866)"/>
  <path d="M66.45 66.3128C71.6691 66.3128 75.9 62.0811 75.9 56.861C75.9 51.6409 71.6691 47.4092 66.45 47.4092C61.2309 47.4092 57 51.6409 57 56.861C57 62.0811 61.2309 66.3128 66.45 66.3128Z" fill="url(#paint1_linear_1_866)"/>
  <path d="M54.75 0.750144C59.25 9.9019 49.05 18.9036 54.15 28.0554C54.3 28.2054 54.45 28.3555 54.6 28.3555H67.5C67.95 28.3555 68.25 27.9054 67.95 27.6053C63.45 18.4535 73.65 9.45182 68.55 0.300058C68.55 0.150029 68.4 0 68.1 0H55.2C54.75 0 54.45 0.450087 54.75 0.750144Z" fill="url(#paint2_linear_1_866)"/>
  <path d="M51.75 85.9666C51.6 86.4167 51.6 87.0168 51.9 87.3168C63 102.17 57.6 116.722 51.75 132.175C45.9 147.628 39.9 163.531 51.9 179.435C52.2 179.735 52.5 179.885 52.95 179.885C68.25 179.885 83.7 179.885 99 179.885C99.45 179.885 99.9 179.585 100.2 179.134C100.35 178.684 100.35 178.084 100.05 177.784C88.95 162.931 94.5 148.379 100.2 132.926C103.5 124.074 106.95 114.922 106.95 105.77C106.95 99.0191 105.15 92.2678 100.05 85.5165C99.75 85.2164 99.45 85.0664 99 85.0664H52.95C52.5 85.2164 52.05 85.5165 51.75 85.9666Z" fill="url(#paint3_linear_1_866)"/>
  <path d="M90.6 130.675C92.1 130.675 93.75 130.675 95.25 130.675C94.65 132.175 94.2 133.676 93.6 135.176C92.1 135.176 90.75 135.176 89.25 135.176C88.05 138.327 86.1 141.177 84.6 142.978C82.95 142.527 81.3 142.077 79.65 141.627C81.3 139.677 83.25 136.976 84.45 133.976C85.35 131.425 85.05 129.625 83.25 129.625C81.6 129.625 79.8 131.125 77.4 134.576C73.95 139.527 70.5 142.828 66.15 142.828C62.1 142.828 59.85 139.977 60.75 135.176C59.25 135.176 57.9 135.176 56.4 135.176C57 133.676 57.45 132.175 58.05 130.675C59.4 130.675 60.75 130.675 62.1 130.675C63.3 127.675 64.8 125.574 66 124.074C67.5 124.524 69.15 124.974 70.65 125.424C69.75 126.624 67.95 128.725 66.6 132.025C65.55 135.026 66.45 135.926 67.8 135.926C69.3 135.926 70.8 134.276 73.8 130.375C77.7 124.974 80.85 122.724 85.05 122.724C89.1 122.424 91.65 125.274 90.6 130.675Z" fill="url(#paint4_linear_1_866)"/>
  <path d="M5.09997 28.8053C4.94997 29.1054 4.94997 29.4054 5.09997 29.5554C11.7 38.4071 8.54997 47.2589 4.94997 56.5606C1.49997 65.8624 -2.10002 75.3142 5.09997 84.9161C5.24997 85.0661 5.54997 85.2161 5.69997 85.2161C14.85 85.2161 24.15 85.2161 33.3 85.2161C33.6 85.2161 33.9 85.0661 34.05 84.7661C34.2 84.466 34.2 84.1659 34.05 84.0159C27.45 75.1642 30.75 66.3125 34.2 57.1607C36.15 51.7597 38.25 46.3587 38.25 40.9576C38.25 36.9069 37.2 32.8561 34.05 28.8053C33.9 28.6553 33.6 28.5052 33.45 28.5052H5.84997C5.54997 28.3552 5.24997 28.6553 5.09997 28.8053Z" fill="url(#paint5_linear_1_866)"/>
  <path d="M28.5 55.6604C29.4 55.6604 30.45 55.6604 31.35 55.6604C31.05 56.5606 30.75 57.4608 30.3 58.3609C29.4 58.3609 28.5 58.3609 27.75 58.3609C27 60.1613 25.8 61.9616 24.9 63.0118C23.85 62.7118 22.95 62.4117 21.9 62.2617C22.95 61.0614 24 59.5612 24.75 57.7608C25.35 56.2605 25.05 55.0603 24 55.0603C22.95 55.0603 21.9 55.9605 20.55 58.0609C18.45 61.0614 16.5 63.0118 13.8 63.0118C11.4 63.0118 10.05 61.3615 10.5 58.3609C9.59998 58.3609 8.69998 58.3609 7.94998 58.3609C8.24998 57.4608 8.54998 56.5606 8.99998 55.6604C9.74998 55.6604 10.65 55.6604 11.4 55.6604C12.15 53.8601 13.05 52.5098 13.8 51.6096C14.7 51.9097 15.75 52.2097 16.65 52.3598C16.05 53.1099 15 54.3101 14.25 56.2605C13.65 58.0609 14.1 58.661 15 58.661C15.9 58.661 16.8 57.7608 18.6 55.3604C21 52.0597 22.8 50.8595 25.35 50.8595C27.6 50.7095 29.1 52.3598 28.5 55.6604Z" fill="url(#paint6_linear_1_866)"/>
  <defs>
    <linearGradient id="paint0_linear_1_866" x1="34.35" y1="104.27" x2="34.35" y2="116.872" gradientUnits="userSpaceOnUse">
      <stop stop-color="#FFCF53"/>
      <stop offset="1" stop-color="#FF9900"/>
    </linearGradient>
    <linearGradient id="paint1_linear_1_866" x1="66.45" y1="47.4092" x2="66.45" y2="66.3128" gradientUnits="userSpaceOnUse">
      <stop stop-color="#FFCF53"/>
      <stop offset="1" stop-color="#FF9900"/>
    </linearGradient>
    <linearGradient id="paint2_linear_1_866" x1="61.35" y1="0" x2="61.35" y2="28.3555" gradientUnits="userSpaceOnUse">
      <stop stop-color="#44BBFE"/>
      <stop offset="1" stop-color="#1E78FE"/>
    </linearGradient>
    <linearGradient id="paint3_linear_1_866" x1="75.941" y1="180.035" x2="75.941" y2="85.2797" gradientUnits="userSpaceOnUse">
      <stop stop-color="#F4AE39"/>
      <stop offset="1" stop-color="#FADBAC"/>
    </linearGradient>
    <linearGradient id="paint4_linear_1_866" x1="75.9301" y1="142.826" x2="75.9301" y2="122.482" gradientUnits="userSpaceOnUse">
      <stop stop-color="#FAE1B6"/>
      <stop offset="1" stop-color="white"/>
    </linearGradient>
    <linearGradient id="paint5_linear_1_866" x1="19.5908" y1="28.4644" x2="19.5908" y2="85.2161" gradientUnits="userSpaceOnUse">
      <stop stop-color="#44BBFE"/>
      <stop offset="1" stop-color="#1E78FE"/>
    </linearGradient>
    <linearGradient id="paint6_linear_1_866" x1="19.6608" y1="62.9542" x2="19.6608" y2="50.7479" gradientUnits="userSpaceOnUse">
      <stop stop-color="#C1D5F4"/>
      <stop offset="1" stop-color="white"/>
    </linearGradient>
  </defs>
</svg>