<svg xmlns="http://www.w3.org/2000/svg" width="180" height="69" viewBox="0 0 180 69" fill="none">
  <path d="M0 56.7911C0 62.9423 5.1 68.0433 11.25 68.0433H168.75C174.9 68.0433 180 62.9423 180 56.7911V0.530273H0V56.7911Z" fill="url(#paint0_linear_1_876)"/>
  <path d="M154.65 50.3399C159.289 50.3399 163.05 46.5784 163.05 41.9383C163.05 37.2982 159.289 33.5366 154.65 33.5366C150.011 33.5366 146.25 37.2982 146.25 41.9383C146.25 46.5784 150.011 50.3399 154.65 50.3399Z" fill="url(#paint1_linear_1_876)"/>
  <path d="M137.85 50.3399C142.489 50.3399 146.25 46.5784 146.25 41.9383C146.25 37.2982 142.489 33.5366 137.85 33.5366C133.211 33.5366 129.45 37.2982 129.45 41.9383C129.45 46.5784 133.211 50.3399 137.85 50.3399Z" fill="white"/>
  <path d="M16.5 35.4871C17.4 35.337 19.2 35.187 20.85 35.187C22.95 35.187 24.15 35.337 25.35 36.0872C26.4 36.6873 27.15 37.7375 27.15 39.0877C27.15 40.438 26.4 41.6382 24.75 42.2384C26.55 42.6884 27.75 44.0387 27.75 45.9891C27.75 47.3393 27.15 48.5396 26.25 49.1397C25.2 50.0398 23.25 50.4899 20.25 50.4899C18.6 50.4899 17.25 50.3399 16.5 50.1899V35.4871ZM19.8 41.3382H21C22.8 41.3382 23.7 40.588 23.7 39.5378C23.7 38.3376 22.8 37.7375 21.3 37.7375C20.55 37.7375 20.1 37.7375 19.8 37.8875V41.3382ZM19.8 48.0895C20.1 48.0895 20.55 48.0895 21.15 48.0895C22.65 48.0895 24 47.4894 24 45.839C24 44.3388 22.65 43.7386 21 43.7386H19.8V48.0895Z" fill="white"/>
  <path d="M39 47.7893C39 48.8395 39 49.8897 39.15 50.4898H36L35.85 49.4397C35.1 50.3398 34.05 50.7899 32.7 50.7899C30.45 50.7899 29.1 49.1396 29.1 47.4893C29.1 44.6387 31.65 43.2885 35.55 43.2885V43.1384C35.55 42.5383 35.25 41.7882 33.6 41.7882C32.55 41.7882 31.35 42.2383 30.6 42.5383L30 40.4379C30.75 39.9878 32.25 39.3877 34.2 39.3877C37.8 39.3877 39 41.4881 39 44.1886V47.7893ZM35.7 45.2388C33.9 45.2388 32.55 45.6889 32.55 47.0392C32.55 47.9394 33.15 48.3894 33.9 48.3894C34.8 48.3894 35.4 47.7893 35.7 47.1892C35.7 47.0392 35.7 46.7391 35.7 46.5891V45.2388Z" fill="white"/>
  <path d="M41.85 42.9885C41.85 41.6383 41.85 40.438 41.7 39.5378H44.7L44.85 41.0381C45.3 40.288 46.35 39.2378 48.3 39.2378C50.55 39.2378 52.2 40.7381 52.2 44.0387V50.49H48.75V44.3388C48.75 42.9885 48.3 41.9383 47.1 41.9383C46.2 41.9383 45.6 42.5384 45.3 43.1385C45.15 43.2886 45.15 43.7387 45.15 44.0387V50.3399H41.7V42.9885H41.85Z" fill="white"/>
  <path d="M58.35 44.0386C58.65 43.5885 58.95 43.1384 59.25 42.6883L61.5 39.5377H65.55L61.65 44.0386L66.15 50.6398H61.95L59.25 46.139L58.35 47.1892V50.6398H54.9V34.7368H58.35V44.0386Z" fill="white"/>
  <path d="M82.65 49.8899C81.9 50.19 80.55 50.6401 78.6 50.6401C74.4 50.6401 71.1 47.9396 71.1 42.9886C71.1 38.1877 74.25 35.0371 79.05 35.0371C81 35.0371 82.2 35.4872 82.65 35.6372L82.2 37.2875C81.45 36.9875 80.4 36.6874 79.2 36.6874C75.6 36.6874 73.35 38.9379 73.35 42.9886C73.35 46.7393 75.45 49.1398 79.2 49.1398C80.4 49.1398 81.6 48.8397 82.35 48.5397L82.65 49.8899Z" fill="white"/>
  <path d="M90.9 50.4898L90.75 49.1396C90.15 50.0397 88.95 50.7899 87.45 50.7899C85.2 50.7899 84.15 49.2896 84.15 47.6393C84.15 45.0888 86.55 43.5885 90.75 43.5885V43.4385C90.75 42.5383 90.45 40.888 88.35 40.888C87.3 40.888 86.25 41.188 85.5 41.6381L85.05 40.2879C85.95 39.6878 87.3 39.3877 88.65 39.3877C91.95 39.3877 92.85 41.6381 92.85 43.8886V47.9394C92.85 48.8395 92.85 49.7397 93 50.4898H90.9ZM90.6 44.9388C88.5 44.9388 85.95 45.2388 85.95 47.3392C85.95 48.5395 86.85 49.2896 87.75 49.2896C89.1 49.2896 90 48.3894 90.3 47.4893C90.3 47.3392 90.45 47.0392 90.45 46.8891V44.9388H90.6Z" fill="white"/>
  <path d="M95.7 42.9885C95.7 41.7883 95.7 40.5881 95.55 39.5378H97.35V41.6382H97.5C97.95 40.138 99.15 39.2378 100.5 39.2378C100.8 39.2378 100.95 39.2378 101.1 39.2378V41.0381C100.95 41.0381 100.65 41.0381 100.5 41.0381C99.15 41.0381 98.1 42.0883 97.8 43.5886C97.8 43.8887 97.65 44.1888 97.65 44.4888V50.3399H95.7V42.9885Z" fill="white"/>
  <path d="M112.2 34.5869V47.7895C112.2 48.6896 112.2 49.8899 112.35 50.64H110.55L110.4 48.6896C109.8 49.8899 108.45 50.79 106.65 50.79C104.1 50.79 102 48.5396 102 45.239C102 41.6383 104.25 39.3878 106.8 39.3878C108.45 39.3878 109.65 40.138 110.1 41.0382V34.5869H112.2ZM110.25 44.0387C110.25 43.7387 110.25 43.4386 110.1 43.1386C109.8 41.9383 108.75 40.8881 107.25 40.8881C105.15 40.8881 103.95 42.6885 103.95 45.0889C103.95 47.3394 105 49.1397 107.1 49.1397C108.45 49.1397 109.65 48.2396 109.95 46.7393C109.95 46.4392 110.1 46.1391 110.1 45.8391V44.0387H110.25Z" fill="white"/>
  <defs>
    <linearGradient id="paint0_linear_1_876" x1="90" y1="0.530273" x2="90" y2="68.0433" gradientUnits="userSpaceOnUse">
      <stop stop-color="#44BBFE"/>
      <stop offset="1" stop-color="#1E78FE"/>
    </linearGradient>
    <linearGradient id="paint1_linear_1_876" x1="146.25" y1="41.9948" x2="163.125" y2="41.9948" gradientUnits="userSpaceOnUse">
      <stop stop-color="#D1E0F7"/>
      <stop offset="1" stop-color="#BAD2F1"/>
    </linearGradient>
  </defs>
</svg>