<svg width="20" height="18" viewBox="0 0 20 18" fill="none" xmlns="http://www.w3.org/2000/svg">
<path d="M8.57502 2.21659L1.51668 13.9999C1.37116 14.2519 1.29416 14.5377 1.29334 14.8287C1.29253 15.1197 1.36793 15.4059 1.51204 15.6587C1.65615 15.9115 1.86396 16.1222 2.11477 16.2698C2.36559 16.4174 2.65068 16.4967 2.94168 16.4999H17.0583C17.3494 16.4967 17.6344 16.4174 17.8853 16.2698C18.1361 16.1222 18.3439 15.9115 18.488 15.6587C18.6321 15.4059 18.7075 15.1197 18.7067 14.8287C18.7059 14.5377 18.6289 14.2519 18.4834 13.9999L11.425 2.21659C11.2765 1.97168 11.0673 1.76919 10.8177 1.62866C10.5681 1.48813 10.2865 1.41431 10 1.41431C9.71357 1.41431 9.43196 1.48813 9.18235 1.62866C8.93275 1.76919 8.72358 1.97168 8.57502 2.21659V2.21659Z" stroke="white" stroke-width="1.5" stroke-linecap="round" stroke-linejoin="round"/>
</svg>
